<?xml version="1.0" encoding="UTF-8"?>
<svg id="Layer_2" data-name="Layer 2" xmlns="http://www.w3.org/2000/svg" width="64" height="64" viewBox="0 0 64 64">
  <defs>
    <style>
      .cls-1, .cls-2 {
        fill: #00a3e0;
      }

      .cls-1, .cls-2, .cls-3, .cls-4, .cls-5 {
        stroke-width: 0px;
      }

      .cls-2, .cls-4 {
        fill-rule: evenodd;
      }

      .cls-3, .cls-4 {
        fill: #fff;
      }

      .cls-5 {
        fill: #fdfdfd;
      }
    </style>
  </defs>
  <g id="Light_Blue" data-name="Light Blue">
    <g id="Brands_Light_Blue" data-name="Brands Light Blue">
      <g>
        <path class="cls-1" d="m0,32C0,14.3269,14.3269,0,32,0c17.6731,0,32,14.3269,32,32,0,17.6732-14.3269,32-32,32C14.3269,64,0,49.6732,0,32Z"/>
        <path class="cls-3" d="m19.6714,26h-11.3428c-.1815,0-.3286.1471-.3286.3286v1.8428c0,.1815.1471.3286.3286.3286h.4216v.2964c0,.1815.1471.3286.3285.3286h4.1709v3.125h-.4216c-.1815,0-.3286.1471-.3286.3286v11.9213c0,.8284.6716,1.5,1.5,1.5s1.5-.6716,1.5-1.5v-11.9213c0-.1815-.1471-.3286-.3286-.3286h-.4211v-3.125h4.172c.1814,0,.3286-.1471.3286-.3286v-.2964h.4211c.1815,0,.3286-.1471.3286-.3286v-1.8428c0-.1815-.1471-.3286-.3286-.3286Z"/>
        <path class="cls-4" d="m35.4549,29.2897c-.9184.0818-1.5006,1.0095-1.0377,1.809.073.126.1461.2494.219.3724.3465.5844.6882,1.1609.9881,1.9822.2881.7892.4039,1.4375.5167,2.0697.0564.3159.1121.6277.1882.9512.133.5651.7232.8701,1.2853.7267.4343-.1107.7598-.4673.8045-.9122.0856-.8519.1672-2.2708-.0897-3.27-.3548-1.3801-1.22-2.6125-1.752-3.2753-.2689-.3349-.6957-.4917-1.1223-.4537Zm-7.9557-8.7016c-.0428,1.1119-.1055,2.7391-.875,3.8652-1.2796,1.8725-5.9989,12.9546-2.1307,20.1161.5128.9495,1.5645,1.4305,2.6436,1.4305h10.54c.4687,0,.9121-.2311,1.1308-.6458,1.8506-3.5078,3.3772-11.8747-.1837-16.901-1.1924-1.6831-3.6705-3.3204-4.6192-3.9109-.2317-.1442-.3651-.4031-.3437-.6751.0865-1.0996.2716-3.8975-.0371-4.414-.386-.6458-5.7284-.5614-6,.0002-.0883.1827-.1043.5988-.125,1.1346Z"/>
        <path class="cls-4" d="m52.4034,23.9927h-6.8c-.96,0-1.7.84-1.6,1.78l1.38,12.7999c.1.8201.78,1.42,1.6,1.42h4.04c.8199,0,1.5-.6,1.58-1.42l1.38-12.7999c.1-.9401-.64-1.78-1.58-1.78Zm-1.54,8.8c-.46,1-1,1.22-1.74,1.22h-.02c-.5,0-1.14,0-1.7-1.22-.7201-1.54,1.72-4,1.72-4,0,0,2.4399,2.46,1.74,4Z"/>
        <path class="cls-2" d="m50.8634,32.7927c-.46,1-1,1.22-1.74,1.22h-.02c-.5,0-1.14,0-1.7-1.22-.7201-1.54,1.72-4,1.72-4,0,0,2.4399,2.46,1.74,4Z"/>
        <path class="cls-5" d="m51.8,42h-5.6c-.1105,0-.2.0896-.2.2v2.8c0,.5523.4477,1,1,1h4c.5523,0,1-.4477,1-1v-2.8c0-.1104-.0896-.2-.2-.2Z"/>
      </g>
    </g>
  </g>
</svg>