<svg width="388" height="656" viewBox="0 0 388 656" fill="none" xmlns="http://www.w3.org/2000/svg">
<path d="M328.015 655.996C240.412 655.996 158.014 621.886 96.0963 559.934C34.144 497.982 0 415.618 0 328.015C0 240.412 34.1097 158.049 96.0963 96.0964C158.049 34.144 240.412 0 328.015 0C415.618 0 497.982 34.1098 559.934 96.0964C621.886 158.049 656.03 240.412 656.03 328.015C656.03 415.618 621.921 498.016 559.934 559.934C497.982 621.886 415.618 655.996 328.015 655.996ZM328.015 13.6302C244.042 13.6302 165.103 46.3358 105.72 105.685C46.3358 165.069 13.6644 244.008 13.6644 327.981C13.6644 411.954 46.3701 490.893 105.72 550.276C165.103 609.66 244.042 642.332 328.015 642.332C411.988 642.332 490.927 609.626 550.311 550.276C609.695 490.893 642.366 411.954 642.366 327.981C642.366 244.008 609.66 165.069 550.311 105.685C490.927 46.3016 411.988 13.6302 328.015 13.6302Z" fill="#00B140"/>
<path d="M327.979 610.105C253.287 610.105 182.944 581.235 129.759 528.7C76.1285 475.755 46.3681 405.07 45.8887 329.727C45.4092 254.384 74.3134 183.322 127.293 129.726C180.239 76.0957 250.924 46.3354 326.267 45.8559C401.644 45.4107 472.637 74.3149 526.268 127.26C579.898 180.206 609.658 250.891 610.138 326.234C610.617 401.577 581.713 472.604 528.733 526.235C475.788 579.865 405.103 609.626 329.76 610.105C329.178 610.105 328.561 610.105 327.979 610.105ZM328.082 59.5203C327.5 59.5203 326.952 59.5203 326.369 59.5203C254.657 59.9655 187.396 88.3219 137.019 139.315C86.6081 190.343 59.1421 257.912 59.5531 329.624C60.4778 477.091 180.752 596.406 327.979 596.44C328.561 596.44 329.109 596.44 329.657 596.44C401.37 595.995 468.63 567.639 519.007 516.646C569.418 465.618 596.919 398.049 596.473 326.337C596.028 254.624 567.672 187.363 516.678 136.986C466.062 86.9862 399.144 59.5203 328.082 59.5203Z" fill="#00B140"/>
<path d="M327.954 564.249C266.173 564.249 207.885 540.619 163.501 497.502C118.227 453.529 92.7476 394.591 91.8229 331.474C90.8983 268.392 114.597 208.665 158.536 163.391C202.474 118.117 261.447 92.6374 324.564 91.7127C325.728 91.7127 326.927 91.6785 328.125 91.6785C456.79 91.6785 562.407 195.343 564.325 324.419C565.25 387.536 541.585 447.228 497.612 492.502C453.64 537.776 394.701 563.222 331.584 564.181C330.386 564.181 329.187 564.181 327.988 564.181M328.125 105.309C326.995 105.309 325.899 105.309 324.769 105.309C265.317 106.199 209.769 130.172 168.364 172.843C126.96 215.515 104.631 271.748 105.487 331.2C106.378 390.652 130.35 446.201 173.022 487.639C215.693 529.043 271.995 551.372 331.379 550.482C390.831 549.591 446.379 525.619 487.818 482.947C529.222 440.276 551.551 384.043 550.661 324.59C548.846 202.98 449.325 105.309 328.125 105.309Z" fill="#00B140"/>
<path d="M327.883 518.427C279.047 518.427 232.814 500.036 197.163 466.337C160.211 431.406 139.08 384.145 137.676 333.289C136.272 282.467 154.731 234.076 189.663 197.124C224.629 160.172 271.855 139.041 322.711 137.637C427.712 134.692 515.452 217.706 518.363 322.672C521.274 427.639 438.294 515.413 333.328 518.324C331.513 518.358 329.698 518.392 327.883 518.392M328.088 151.199C326.444 151.199 324.766 151.199 323.088 151.268C275.896 152.569 232.026 172.192 199.594 206.508C167.128 240.823 150.005 285.686 151.341 332.912C152.642 380.104 172.265 423.974 206.581 456.406C240.896 488.872 285.828 505.995 332.985 504.694C430.417 501.954 507.472 420.515 504.767 323.083C502.096 227.33 423.362 151.233 328.122 151.233" fill="#00B140"/>
<path d="M327.942 472.639C251.435 472.639 187.393 412.399 183.558 335.139C179.619 255.481 241.195 187.467 320.853 183.528C400.545 179.59 468.525 241.166 472.463 320.858C476.401 400.516 414.826 468.53 335.168 472.468C332.736 472.605 330.305 472.639 327.908 472.639M328.079 196.987C325.887 196.987 323.695 197.022 321.504 197.159C249.38 200.72 193.592 262.33 197.154 334.454C200.715 406.612 262.325 462.365 334.449 458.804C406.572 455.208 462.36 393.632 458.799 321.474C455.34 251.542 397.326 196.953 328.045 196.953" fill="#00B140"/>
<path d="M327.844 426.988C304.83 426.988 282.741 419.043 264.796 404.179C244.453 387.296 231.885 363.494 229.453 337.159C227.022 310.823 234.967 285.138 251.85 264.795C268.734 244.453 292.536 231.884 318.871 229.453C373.187 224.384 421.543 264.521 426.577 318.837C429.043 345.172 421.063 370.892 404.18 391.234C387.296 411.577 363.495 424.111 337.159 426.577C334.043 426.851 330.926 426.988 327.81 426.988M328.049 242.672C325.412 242.672 322.775 242.809 320.104 243.049C297.399 245.172 276.885 255.96 262.33 273.528C247.775 291.063 240.926 313.22 243.015 335.926C245.104 358.631 255.926 379.145 273.494 393.7C291.029 408.255 313.186 415.104 335.892 413.015C358.597 410.892 379.111 400.07 393.666 382.536C408.221 365.001 415.07 342.844 412.981 320.138C408.872 275.96 371.611 242.706 328.084 242.706" fill="#00B140"/>
<path d="M328.023 381.817C303.365 381.817 281.07 364.728 275.488 339.693C269.015 310.721 287.337 281.885 316.31 275.447C345.283 268.974 374.119 287.296 380.591 316.269C387.064 345.241 368.742 374.077 339.769 380.55C335.831 381.406 331.927 381.851 328.057 381.851M328.057 287.81C325.146 287.81 322.235 288.118 319.29 288.769C297.646 293.597 284.015 315.104 288.81 336.748C293.639 358.358 315.146 372.022 336.755 367.228C358.399 362.399 372.064 340.892 367.235 319.282C363.057 300.584 346.413 287.844 328.023 287.844" fill="#00B140"/>
</svg>
