<?xml version="1.0" encoding="UTF-8"?>
<svg width="108px" height="82px" viewBox="0 0 108 82" version="1.1" xmlns="http://www.w3.org/2000/svg" xmlns:xlink="http://www.w3.org/1999/xlink">
    <!-- Generator: Sketch 49 (51002) - http://www.bohemiancoding.com/sketch -->
    <title>Page 1</title>
    <desc>Created with Sketch.</desc>
    <defs></defs>
    <g id="Secondary-&amp;-Tertiary-Pages" stroke="none" stroke-width="1" fill="none" fill-rule="evenodd" stroke-linecap="round" stroke-linejoin="round">
        <g id="Gender-Equality-Desktop" transform="translate(-586.000000, -1815.000000)" stroke-width="2">
            <g id="Jump-Links" transform="translate(365.000000, 1726.000000)">
                <g id="Categories" transform="translate(75.000000, 90.000000)">
                    <g id="2" transform="translate(140.000000, 0.000000)">
                        <g id="Page-1" transform="translate(7.000000, 0.000000)">
                            <path d="M93.6580274,55.9912877 L103.670082,55.888274" id="Stroke-6" stroke="#B41A83"></path>
                            <path d="M98.6639452,64.183726 L98.6639452,23.7223562" id="Stroke-1" stroke="#B41A83"></path>
                            <path d="M105.757808,72.574137 C105.757808,76.4919452 102.581918,79.6678356 98.6641096,79.6678356 C94.7463014,79.6678356 91.569863,76.4919452 91.569863,72.574137 C91.569863,68.6563288 94.7463014,65.4804384 98.6641096,65.4804384 C102.581918,65.4804384 105.757808,68.6563288 105.757808,72.574137 Z" id="Stroke-8" stroke="#B41A83"></path>
                            <path d="M53.5494247,46.9850959 C51.126411,48.203726 47.1576438,48.2103014 44.7302466,46.9998904 L1.80147945,25.5971507 C-0.625917808,24.3867397 -0.596328767,22.4678356 1.86723288,21.3324932 L45.1066849,1.40427397 C47.5696986,0.268931507 51.6042192,0.261260274 54.0716164,1.38728767 L96.8546301,20.9061918 C99.3220274,22.0322192 99.3587397,23.9500274 96.935726,25.1686575 L53.5494247,46.9850959 Z" id="Stroke-2" stroke="#003DA7"></path>
                            <path d="M79.6201644,35.1133151 L83.9713973,57.1801644 C84.4957808,59.8415342 84.9253699,62.0185205 84.9253699,62.0185205 C73.8497534,57.5401644 61.2579726,63.9166027 51.483726,70.7872877 C50.3357808,71.594411 48.4557808,71.594411 47.3067397,70.7872877 C37.5330411,63.9166027 24.9418082,57.5401644 13.8656438,62.0185205 C13.8656438,62.0185205 14.2864658,59.8393425 14.7998904,57.1763288 L19.1708493,34.5281096" id="Stroke-4" stroke="#003DA7"></path>
                        </g>
                    </g>
                </g>
            </g>
        </g>
    </g>
</svg>