<?xml version="1.0" encoding="UTF-8"?>
<svg width="37px" height="33px" viewBox="0 0 37 33" version="1.1" xmlns="http://www.w3.org/2000/svg" xmlns:xlink="http://www.w3.org/1999/xlink">
    <!-- Generator: Sketch 49 (51002) - http://www.bohemiancoding.com/sketch -->
    <title>Page 1</title>
    <desc>Created with Sketch.</desc>
    <defs></defs>
    <g id="Secondary-&amp;-Tertiary-Pages" stroke="none" stroke-width="1" fill="none" fill-rule="evenodd" stroke-linecap="round" stroke-linejoin="round">
        <g id="Community-Impact-Desktop" transform="translate(-622.000000, -503.000000)" stroke-width="1.5">
            <g id="Icon" transform="translate(610.000000, 490.000000)">
                <g id="Page-1" transform="translate(13.000000, 14.000000)">
                    <path d="M24.6097895,8.16310526 L21.2197018,2.29170175 C21.2111053,2.28003509 21.2006667,2.26714035 21.1926842,2.25363158 C21.1632105,2.20635088 21.1288246,2.16398246 21.0975088,2.11854386 L21.0944386,2.11424561 C21.0097018,1.98898246 20.9200526,1.86863158 20.8261053,1.75380702 C20.8261053,1.75380702 20.8132105,1.73968421 20.8076842,1.73231579 C20.7143509,1.62117544 20.6185614,1.5137193 20.5178596,1.41363158 C20.5123333,1.40749123 20.5055789,1.40257895 20.5012807,1.3964386 C20.3975088,1.29389474 20.2906667,1.19687719 20.1795263,1.10477193 C20.1795263,1.10477193 20.1727719,1.09924561 20.1703158,1.09678947 C20.0561053,1.00284211 19.9394386,0.914421053 19.8178596,0.832140351 C19.8135614,0.829684211 19.8104912,0.82722807 19.8104912,0.82722807 C19.6858421,0.743719298 19.5624211,0.666964912 19.4359298,0.597578947 C19.4273333,0.592052632 19.4168947,0.587754386 19.4064561,0.58222807 C19.2861053,0.517140351 19.1639123,0.455736842 19.0380351,0.401087719 C19.0165439,0.391263158 18.9938246,0.383894737 18.9711053,0.374070175 C18.8568947,0.326175439 18.7414561,0.281964912 18.6247895,0.242666667 C18.5873333,0.230385965 18.5492632,0.220561404 18.5105789,0.208280702 C18.406807,0.177578947 18.3030351,0.146877193 18.1986491,0.122929825 C18.1458421,0.110035088 18.0924211,0.101438596 18.039614,0.091 C17.9456667,0.0725789474 17.8523333,0.0541578947 17.759,0.0412631579 C17.6945263,0.0332807018 17.6300526,0.0283684211 17.5655789,0.0222280702 C17.4808421,0.014245614 17.3948772,0.00564912281 17.3095263,0.00196491228 C17.2364561,-0.00110526316 17.1652281,0.000122807018 17.0927719,0.000736842105 C17.0135614,0.000736842105 16.9331228,0.000736842105 16.8539123,0.00503508772 C16.7740877,0.00933333333 16.6936491,0.0179298246 16.6144386,0.0259122807 C16.5419825,0.0332807018 16.4719825,0.0400350877 16.4013684,0.0504736842 C16.3074211,0.0645964912 16.2134737,0.0836315789 16.1201404,0.102666667 C16.0661053,0.114333333 16.0132982,0.124157895 15.9592632,0.137666667 C15.921807,0.146877193 15.8812807,0.152403509 15.8425965,0.162842105 C15.7615439,0.184947368 15.6835614,0.213807018 15.6043509,0.239596491 C15.5822456,0.246964912 15.5601404,0.253719298 15.5386491,0.261087719 C14.381193,0.652842105 13.4282105,1.44863158 12.8405789,2.53731579 C12.8338246,2.54959649 12.8264561,2.56249123 12.8178596,2.57477193 L7.35724561,12.0345965 M13.3735614,17.6978421 L18.2158421,9.3082807 L19.2977719,7.43485965 L19.9529474,6.29766667 L19.9744386,6.26082456 M10.5176842,17.2772281 L11.634614,15.3430175 L14.6747018,10.0745965 M12.3530351,8.73354386 L9.67338596,13.3768772 L8.72838596,15.0145088" id="Stroke-1" stroke="#00A1E0"></path>
                    <path d="M3.96764912,18.0095877 L0.576333333,23.8650263 C0.570807018,23.8791491 0.564666667,23.893886 0.556684211,23.9080088 C0.530894737,23.9571316 0.511245614,24.0074825 0.487298246,24.0572193 L0.48545614,24.0602895 C0.419140351,24.1984474 0.360192982,24.3353772 0.307385965,24.4741491 C0.304315789,24.4827456 0.301245614,24.4919561 0.297561404,24.5011667 C0.247824561,24.6362544 0.203614035,24.7731842 0.16677193,24.9095 C0.164315789,24.9174825 0.163087719,24.9254649 0.160017544,24.9334474 C0.123175439,25.0740614 0.0918596491,25.2140614 0.0679122807,25.3559035 L0.0660701754,25.3681842 C0.0415087719,25.5137105 0.0243157895,25.6586228 0.0132631579,25.8041491 L0.0126491228,25.8176579 C0.00221052632,25.9619561 -0.0020877193,26.1068684 0.00098245614,26.2505526 C0.00098245614,26.2616053 0.00221052632,26.2726579 0.00221052632,26.2837105 C0.00589473684,26.4206404 0.0144912281,26.5569561 0.0292280702,26.6932719 C0.0322982456,26.7166053 0.0372105263,26.7405526 0.0396666667,26.763886 C0.0556315789,26.886693 0.0746666667,27.0082719 0.0992280702,27.1292368 C0.106596491,27.167307 0.117649123,27.2053772 0.126859649,27.2440614 C0.151421053,27.3490614 0.176596491,27.4540614 0.208526316,27.5578333 C0.224491228,27.6094123 0.243526316,27.6597632 0.260719298,27.710114 C0.291421053,27.8003772 0.322736842,27.8900263 0.358350877,27.9778333 C0.382912281,28.0373947 0.411157895,28.095114 0.438175439,28.1540614 C0.473789474,28.2314298 0.509403509,28.3094123 0.549315789,28.3849386 C0.582473684,28.4494123 0.619315789,28.5108158 0.656157895,28.5734474 C0.696070175,28.6422193 0.735368421,28.7103772 0.779578947,28.777307 C0.822561404,28.8436228 0.871070175,28.9087105 0.917736842,28.9744123 C0.960105263,29.0321316 1.00063158,29.0898509 1.04545614,29.1457281 C1.10440351,29.2200263 1.16764912,29.2912544 1.23150877,29.3624825 C1.26835088,29.4036228 1.30335088,29.4441491 1.34203509,29.4834474 C1.36905263,29.512307 1.39361404,29.5436228 1.42185965,29.5724825 C1.48203509,29.6314298 1.54589474,29.6842368 1.60791228,29.740114 C1.6257193,29.7548509 1.64229825,29.7708158 1.65949123,29.7861667 C2.57808772,30.5905526 3.74414035,31.0160789 4.98142105,30.9810789 C4.99554386,30.9810789 5.01089474,30.9810789 5.02501754,30.982307 L15.9542281,30.982307 M17.8503684,22.9611667 L8.15966667,22.9617807 L5.99457895,22.9617807 L4.68054386,22.9617807 L4.63817544,22.9617807 M18.9144912,25.6377456 L16.6806316,25.6377456 L10.5943158,25.6383596 M10.5943158,28.3130965 L15.9579123,28.3118684 L17.8497544,28.3118684" id="Stroke-3" stroke="#00AF43"></path>
                    <path d="M22.9523246,30.8443333 L29.7189912,30.8443333 C29.7337281,30.8418772 29.7490789,30.8400351 29.7656579,30.8394211 C29.8215351,30.8375789 29.8743421,30.8289825 29.9289912,30.8252982 L29.9345175,30.8246842 C30.0849561,30.8130175 30.2335526,30.7958246 30.3809211,30.7718772 C30.3895175,30.7700351 30.3987281,30.7675789 30.4085526,30.7663509 C30.5510088,30.7417895 30.6916228,30.7117018 30.8279386,30.6748596 C30.8279386,30.6748596 30.8445175,30.6705614 30.8512719,30.6687193 C30.9925,30.6300351 31.1288158,30.5870526 31.2639035,30.5367018 C31.2639035,30.5367018 31.2725,30.5336316 31.2761842,30.5317895 C31.4137281,30.4802105 31.5488158,30.4231053 31.6802193,30.3592456 C31.6802193,30.3592456 31.6882018,30.3555614 31.691886,30.3537193 C31.8220614,30.2898596 31.9497807,30.2210877 32.0732018,30.1467895 C32.0824123,30.1406491 32.0916228,30.1345088 32.1008333,30.1283684 C32.218114,30.0565263 32.3317105,29.981 32.4422368,29.8999474 C32.4612719,29.8852105 32.479693,29.8698596 32.4987281,29.8557368 C32.5975877,29.7802105 32.6927632,29.7028421 32.7860965,29.6211754 C32.8149561,29.595386 32.8419737,29.5665263 32.8714474,29.5395088 C32.9500439,29.4652105 33.0280263,29.3909123 33.1017105,29.3110877 C33.1391667,29.2717895 33.1735526,29.2300351 33.2085526,29.1901228 C33.2711842,29.1182807 33.3332018,29.0464386 33.3915351,28.9715263 C33.4302193,28.9205614 33.4664474,28.8665263 33.5051316,28.8143333 C33.5542544,28.7443333 33.6046053,28.6743333 33.6500439,28.6018772 C33.688114,28.5410877 33.7237281,28.4778421 33.7593421,28.4152105 C33.7986404,28.3464386 33.8385526,28.2770526 33.8747807,28.2064386 C33.9110088,28.1352105 33.9429386,28.0615263 33.9760965,27.9878421 C34.0055702,27.9221404 34.0356579,27.8582807 34.0614474,27.7913509 C34.0958333,27.7029298 34.1265351,27.6126667 34.1566228,27.5217895 C34.1732018,27.4695965 34.1916228,27.4180175 34.2063596,27.3652105 C34.2180263,27.3271404 34.2327632,27.2909123 34.2432018,27.251614 C34.264693,27.1699474 34.2775877,27.0882807 34.2960088,27.006614 C34.299693,26.9838947 34.3052193,26.9617895 34.3095175,26.9384561 C34.5496053,25.7410877 34.3371491,24.5185439 33.688114,23.4648596 C33.6819737,23.453193 33.6746053,23.4396842 33.6678509,23.4267895 L28.2158333,13.968807 M20.3187281,16.348193 L25.1530263,24.7346842 L26.233114,26.6081053 L26.8882895,27.7452982 L26.9091667,27.7815263 M22.1080263,14.0848596 L23.221886,16.0190702 L26.2589035,21.2862632 M28.5762719,19.9452105 L25.900307,15.3037193 L24.9565351,13.6660877" id="Stroke-5" stroke="#003DA7"></path>
                </g>
            </g>
        </g>
    </g>
</svg>