<svg class="footer-payment-icon" xmlns="http://www.w3.org/2000/svg" xmlns:xlink="http://www.w3.org/1999/xlink" width="284.09pt" height="229.9pt" viewBox="0 0 284.09 229.9" version="1.1">
<defs>
<clipPath id="clip1">
  <path d="M 220 181 L 255 181 L 255 229.898438 L 220 229.898438 Z M 220 181 "></path>
</clipPath>
<clipPath id="clip2">
  <path d="M 255 181 L 284.089844 181 L 284.089844 215 L 255 215 Z M 255 181 "></path>
</clipPath>
</defs>
<g id="surface1">
<path style=" stroke:none;fill-rule:nonzero;fill:rgb(86.299133%,53.69873%,41.999817%);fill-opacity:1;" d="M 218.21875 76.488281 C 217.820313 119.441406 183.65625 152.8125 140.480469 152.378906 C 98.734375 151.972656 65.492188 117.183594 65.820313 74.367188 C 66.140625 33.078125 101.226563 -0.449219 143.648438 0.0078125 C 184.863281 0.378906 218.601563 34.996094 218.21875 76.488281 Z M 146.085938 58.222656 C 147.875 53.464844 148.253906 48.433594 150.9375 46.433594 C 154.417969 43.835938 159.730469 43.675781 165.046875 42.257813 L 167.035156 32.742188 C 151.5625 27.863281 138.410156 34.398438 134.238281 48.632813 C 131.765625 57.089844 131.765625 57.089844 122.996094 58.917969 C 122.589844 62.265625 122.15625 65.683594 121.679688 69.535156 L 132.226563 69.535156 L 118.332031 97.503906 L 128.238281 98.046875 L 119.113281 116.179688 L 148.941406 87.90625 L 148.484375 86.773438 L 137.523438 86.773438 C 143.957031 80.515625 149.136719 75.101563 154.746094 70.152344 C 158.433594 66.898438 159.269531 63.019531 159.5 58.203125 L 146.085938 58.222656 "></path>
<g clip-path="url(#clip1)" clip-rule="nonzero">
<path style=" stroke:none;fill-rule:nonzero;fill:rgb(86.698914%,54.499817%,42.698669%);fill-opacity:1;" d="M 220.675781 228.4375 C 221.1875 226.171875 221.628906 224.136719 222.035156 222.449219 C 225.839844 222.601563 229.398438 223.042969 232.949219 222.804688 C 238.597656 222.433594 241.644531 219.121094 242.214844 213.441406 C 242.308594 212.445313 242.5 211.445313 242.707031 210.023438 L 240.957031 211.65625 C 239.417969 213.105469 237.613281 214.070313 235.546875 214.542969 C 233.480469 215.015625 231.4375 214.929688 229.417969 214.289063 C 226.355469 213.453125 224.574219 211.289063 223.710938 208.273438 C 221.550781 200.738281 224.910156 190.105469 231.320313 185.617188 C 233.726563 183.964844 236.359375 182.847656 239.21875 182.265625 C 244.222656 181.21875 249.285156 181.914063 254.4375 182.828125 C 253.800781 187.632813 253.195313 192.28125 252.539063 196.9375 C 251.738281 202.644531 250.871094 208.40625 250.101563 214.15625 C 248.875 223.355469 242.929688 229.070313 233.632813 229.742188 C 229.226563 230.171875 224.90625 229.734375 220.675781 228.4375 Z M 245.648438 189.078125 C 240.476563 187.695313 236.679688 188.699219 234.582031 192.007813 C 233.371094 193.882813 232.558594 195.914063 232.148438 198.109375 C 231.738281 200.304688 231.757813 202.492188 232.207031 204.679688 C 232.710938 207.285156 234.867188 208.4375 237.476563 207.691406 C 238.871094 207.289063 240.0625 206.558594 241.058594 205.503906 C 242.054688 204.445313 242.71875 203.210938 243.042969 201.796875 C 244.183594 197.660156 244.792969 193.386719 245.648438 189.078125 "></path>
</g>
<path style=" stroke:none;fill-rule:nonzero;fill:rgb(86.698914%,54.499817%,42.698669%);fill-opacity:1;" d="M 157.503906 214.441406 C 158.265625 208.863281 158.976563 203.707031 159.671875 198.542969 C 159.9375 196.539063 160.261719 194.519531 160.328125 192.5 C 160.433594 189.570313 158.660156 188.269531 155.828125 189.078125 C 154.5625 189.394531 153.445313 189.988281 152.480469 190.867188 C 151.515625 191.746094 150.820313 192.800781 150.386719 194.03125 C 149.261719 197.988281 148.363281 201.992188 147.695313 206.050781 C 147.246094 208.324219 147.113281 210.65625 146.742188 212.9375 C 146.636719 213.480469 146.015625 214.335938 145.59375 214.363281 C 143.289063 214.507813 140.976563 214.433594 138.363281 214.433594 L 143.84375 174.242188 L 138.550781 173.472656 C 138.65625 172.054688 138.84375 170.640625 139.105469 169.242188 C 139.410156 168.691406 139.878906 168.378906 140.5 168.285156 C 144.535156 167.964844 148.570313 167.746094 153.011719 167.460938 L 150.320313 186.488281 L 152.042969 185.015625 C 153.496094 183.769531 155.148438 182.878906 156.996094 182.355469 C 158.835938 181.824219 160.707031 181.707031 162.601563 181.996094 C 167.148438 182.570313 169.453125 185.9375 168.851563 191.03125 C 168.347656 195.273438 167.738281 199.503906 167.167969 203.746094 C 166.78125 206.695313 166.300781 209.628906 165.988281 212.585938 C 165.847656 213.914063 165.417969 214.488281 163.980469 214.488281 C 161.878906 214.316406 159.851563 214.441406 157.503906 214.441406 "></path>
<path style=" stroke:none;fill-rule:nonzero;fill:rgb(86.698914%,54.499817%,42.698669%);fill-opacity:1;" d="M 0.207031 223.613281 L 5.6875 212.296875 C 6.117188 211.394531 6.5625 210.511719 7.171875 209.265625 L 0.3125 209.265625 C 3.527344 202.855469 6.5625 196.820313 9.828125 190.410156 L 2.613281 190.410156 L 3.632813 182.949219 C 4.375 182.894531 4.992188 182.808594 5.621094 182.796875 C 8.953125 182.742188 9.523438 182.300781 10.433594 178.992188 C 10.742188 177.871094 11.019531 176.746094 11.339844 175.636719 C 13.242188 169.230469 17.53125 165.597656 24.15625 164.957031 C 27.007813 164.683594 29.863281 164.957031 33.242188 164.957031 C 32.59375 167.992188 32.0625 170.496094 31.492188 173.152344 C 28.160156 172.886719 24.667969 171.707031 22.042969 174.625 C 20.035156 176.859375 19.910156 179.734375 19.78125 182.75 L 28.039063 182.75 C 27.730469 185.976563 27.152344 188.6875 24.609375 190.933594 C 20.804688 194.269531 17.402344 198.019531 13.460938 201.949219 L 20.785156 201.949219 L 21.167969 202.503906 L 0.332031 223.757813 L 0.207031 223.613281 "></path>
<path style=" stroke:none;fill-rule:nonzero;fill:rgb(86.698914%,54.499817%,42.698669%);fill-opacity:1;" d="M 189.191406 194.785156 C 190.316406 190.027344 189.023438 188.125 184.4375 188.390625 C 181.238281 188.582031 178.089844 189.476563 174.816406 190.074219 C 174.816406 188.496094 174.761719 186.523438 174.875 184.558594 C 174.875 184.175781 175.523438 183.605469 175.980469 183.503906 C 180.875 181.804688 185.875 181.378906 190.984375 182.21875 C 196.5 183.226563 198.738281 186.429688 197.976563 192.015625 C 197.355469 196.539063 196.699219 201.054688 196.070313 205.574219 C 195.976563 206.277344 195.988281 207 195.9375 207.847656 L 200.875 208.589844 C 200.972656 208.789063 201.085938 208.921875 201.074219 209.035156 C 200.554688 213.933594 200.554688 213.972656 195.617188 214.125 C 192.953125 214.214844 190.277344 214.125 187.453125 214.125 L 187.796875 210.320313 C 187.007813 210.964844 186.53125 211.332031 186.070313 211.71875 C 183.675781 213.816406 180.886719 214.863281 177.703125 214.871094 C 171.296875 214.945313 168.128906 210.539063 170.183594 204.453125 C 170.726563 202.757813 171.617188 201.277344 172.859375 200 C 174.097656 198.722656 175.554688 197.789063 177.234375 197.203125 C 180.40625 196.21875 183.628906 195.453125 186.898438 194.902344 C 187.660156 194.800781 188.425781 194.761719 189.191406 194.785156 Z M 188.421875 200.167969 C 186.777344 200.234375 185.144531 200.414063 183.523438 200.71875 C 181.972656 201.097656 180.535156 201.730469 179.214844 202.625 C 178.507813 203.082031 178.035156 203.710938 177.792969 204.515625 C 177.554688 205.320313 177.601563 206.109375 177.9375 206.878906 C 178.652344 208.636719 180.261719 208.648438 181.8125 208.464844 C 185.234375 208.058594 188.394531 204.191406 188.421875 200.167969 "></path>
<g clip-path="url(#clip2)" clip-rule="nonzero">
<path style=" stroke:none;fill-rule:nonzero;fill:rgb(86.698914%,54.499817%,42.698669%);fill-opacity:1;" d="M 263.90625 199.628906 C 262.859375 204.890625 265.132813 208.113281 270.0625 208.085938 C 273.484375 208.085938 276.902344 207.324219 280.523438 206.886719 C 280.523438 208.226563 280.601563 210 280.523438 211.753906 C 280.367188 212.375 279.992188 212.800781 279.402344 213.042969 C 274.515625 214.769531 269.523438 215.191406 264.417969 214.296875 C 259.148438 213.273438 256.273438 210.492188 255.621094 205.152344 C 254.746094 198.019531 256.238281 191.378906 261.507813 186.128906 C 265.707031 181.953125 270.898438 180.839844 276.566406 182.132813 C 280.992188 183.132813 283.644531 186.488281 284.085938 191.167969 C 284.09375 191.316406 284.09375 191.457031 284.085938 191.597656 C 283.878906 193.898438 284.21875 196.460938 283.316406 198.449219 C 282.105469 201.101563 279.1875 199.398438 277.082031 199.539063 C 272.714844 199.855469 268.347656 199.628906 263.90625 199.628906 Z M 264.980469 193.871094 L 275.859375 193.871094 C 276.585938 190.484375 275.277344 188.441406 272.363281 187.839844 C 269.625 187.269531 265.171875 189.820313 265.011719 193.871094 L 264.980469 193.871094 "></path>
</g>
<path style=" stroke:none;fill-rule:nonzero;fill:rgb(86.698914%,54.499817%,42.698669%);fill-opacity:1;" d="M 77.9375 207.417969 C 77.9375 208.734375 78.023438 210.464844 77.9375 212.175781 C 77.777344 212.785156 77.40625 213.210938 76.824219 213.453125 C 72.003906 215.175781 67.074219 215.589844 62.03125 214.699219 C 55.933594 213.585938 52.964844 209.941406 52.878906 203.050781 C 52.8125 197.289063 54.136719 191.785156 58.195313 187.351563 C 62.628906 182.5 68.15625 181.035156 74.367188 182.59375 C 79.125 183.792969 81.542969 187.574219 81.648438 193.1875 C 81.761719 199.550781 81.351563 199.96875 75.089844 199.96875 C 71.46875 199.96875 67.832031 199.96875 64.199219 199.96875 C 63.34375 199.96875 62.476563 200.078125 61.628906 200.121094 C 60.15625 204.316406 62.269531 208.160156 66.566406 208.304688 C 70.324219 208.484375 74.113281 207.78125 77.9375 207.417969 Z M 62.363281 194.308594 L 73.398438 194.308594 C 74.132813 191.074219 73.019531 188.964844 70.34375 188.316406 C 66.804688 187.46875 63.449219 189.933594 62.363281 194.308594 "></path>
<path style=" stroke:none;fill-rule:nonzero;fill:rgb(86.698914%,54.499817%,42.698669%);fill-opacity:1;" d="M 108.394531 207.246094 C 108.394531 208.589844 108.46875 210.320313 108.347656 212.007813 C 108.214844 212.621094 107.867188 213.066406 107.296875 213.335938 C 101.96875 215.039063 96.539063 215.746094 91.039063 214.289063 C 86.023438 212.976563 83.65625 209.328125 83.324219 204.402344 C 82.894531 198.199219 84.167969 192.351563 88.316406 187.527344 C 92.636719 182.515625 98.25 180.921875 104.644531 182.464844 C 105.632813 182.679688 106.5625 183.042969 107.425781 183.566406 C 108.292969 184.085938 109.050781 184.738281 109.699219 185.515625 C 110.351563 186.285156 110.855469 187.148438 111.21875 188.09375 C 111.582031 189.039063 111.78125 190.015625 111.816406 191.03125 C 111.824219 193.484375 111.699219 195.9375 111.433594 198.382813 C 111.367188 199.714844 110.640625 200.019531 109.417969 200.011719 C 104.117188 199.949219 98.820313 200.011719 93.523438 199.949219 C 91.78125 199.949219 91.398438 200.714844 91.464844 202.164063 C 91.644531 206.039063 93.910156 208.503906 97.820313 208.402344 C 101.371094 208.332031 104.804688 207.667969 108.394531 207.246094 Z M 92.683594 194.226563 L 103.808594 194.226563 C 104.4375 190.777344 103.441406 188.925781 100.703125 188.25 C 97.328125 187.402344 94.191406 189.644531 92.683594 194.226563 "></path>
<path style=" stroke:none;fill-rule:nonzero;fill:rgb(86.698914%,54.499817%,42.698669%);fill-opacity:1;" d="M 138.835938 182.894531 C 138.1875 185.433594 137.609375 187.726563 137.132813 189.625 C 134.453125 189.488281 131.988281 189.019531 129.636719 189.359375 C 127.898438 189.714844 126.457031 190.566406 125.308594 191.917969 C 124.050781 193.46875 123.179688 195.207031 122.695313 197.136719 C 122.210938 199.070313 122.164063 201.011719 122.550781 202.96875 C 123.015625 206.050781 124.761719 207.484375 127.875 207.667969 C 129.039063 207.730469 130.195313 207.683594 131.351563 207.515625 C 132.472656 207.34375 133.578125 206.960938 134.8125 206.648438 C 134.8125 208.675781 134.886719 210.597656 134.753906 212.507813 C 134.585938 213.125 134.199219 213.546875 133.605469 213.773438 C 129.378906 215.039063 125.097656 215.527344 120.769531 214.296875 C 119.015625 213.898438 117.519531 213.039063 116.292969 211.726563 C 115.066406 210.410156 114.3125 208.863281 114.035156 207.089844 C 112.785156 200.113281 114.035156 193.550781 118.667969 188.0625 C 123.945313 181.824219 130.96875 181.144531 138.835938 182.894531 "></path>
<path style=" stroke:none;fill-rule:nonzero;fill:rgb(86.698914%,54.499817%,42.698669%);fill-opacity:1;" d="M 41.222656 214.441406 L 33.175781 214.441406 C 34.304688 206.050781 35.429688 197.765625 36.578125 189.21875 L 31.28125 188.449219 C 31.460938 186.953125 31.546875 185.597656 31.839844 184.253906 C 32.023438 183.714844 32.394531 183.371094 32.945313 183.226563 C 36.972656 182.941406 41.003906 182.75 45.171875 182.53125 C 44.945313 184.148438 44.773438 185.386719 44.601563 186.539063 C 47.453125 183.921875 50.386719 181.636719 54.761719 182.113281 C 54.277344 184.773438 53.808594 187.316406 53.355469 189.789063 C 53.144531 189.914063 53.011719 190.058594 52.898438 190.035156 C 47.625 189.492188 45.171875 192.539063 44.203125 196.695313 C 43.078125 201.453125 42.507813 206.394531 41.710938 211.242188 C 41.539063 212.296875 41.429688 213.308594 41.222656 214.441406 Z M 44.660156 187.214844 L 44.542969 187.082031 L 44.429688 187.199219 L 44.601563 187.332031 L 44.660156 187.214844 "></path>
<path style=" stroke:none;fill-rule:nonzero;fill:rgb(86.698914%,54.499817%,42.698669%);fill-opacity:1;" d="M 207.363281 188.851563 L 202.085938 188.136719 C 202.265625 186.605469 202.359375 185.117188 202.671875 183.671875 C 202.75 183.308594 203.511719 182.882813 203.976563 182.847656 C 207.871094 182.589844 211.761719 182.40625 215.945313 182.195313 C 215.660156 184 215.421875 185.453125 215.097656 187.402344 C 217.953125 183.890625 220.730469 181.285156 225.460938 181.921875 C 225.003906 184.519531 224.507813 187.042969 224.121094 189.53125 C 217.136719 190.484375 214.84375 193.101563 213.863281 200.953125 C 213.320313 205.320313 212.664063 209.671875 212.046875 214.125 L 203.921875 214.125 C 205.074219 205.660156 206.195313 197.371094 207.363281 188.851563 "></path>
<path style=" stroke:none;fill-rule:nonzero;fill:rgb(86.698914%,54.499817%,42.698669%);fill-opacity:1;" d="M 0.304688 223.726563 L 0 223.972656 C 0.0742188 223.859375 0.140625 223.734375 0.207031 223.613281 L 0.304688 223.726563 "></path>
</g>
</svg>