<svg xmlns="http://www.w3.org/2000/svg" width="68.373" height="65.964" viewBox="0 0 68.373 65.964" style="">
  <g id="Icon" transform="translate(0.698 0.691)">
    <g id="Page_1" data-name="Page 1">
      <path id="Stroke_1" data-name="Stroke 1" d="M1.695,13.164A27.035,27.035,0,0,0,.184,3.694,2.663,2.663,0,0,1,1.314.408L1.43.341A2.62,2.62,0,0,1,5.169,1.707a32.075,32.075,0,0,1,1.9,11.415,2.688,2.688,0,1,1-5.376.042Z" transform="translate(54.436 27.999)" fill="none" stroke="#ee7624" stroke-linecap="round" stroke-linejoin="round" stroke-miterlimit="10" stroke-width="1.5" class="yBCIcxcs_0"/>
      <path id="Stroke_3" data-name="Stroke 3" d="M25.672,2.668V0H7.437V2.668s-13.427,15.093-4.2,48.07a3.344,3.344,0,0,0,3.214,2.447H35.615a3.337,3.337,0,0,0,3.206-2.425C50.913,8.13,25.672,2.668,25.672,2.668Z" transform="translate(24.776 11.338)" fill="none" stroke="#ee7624" stroke-linecap="round" stroke-linejoin="round" stroke-miterlimit="10" stroke-width="1.5" class="yBCIcxcs_1"/>
      <path id="Stroke_5" data-name="Stroke 5" d="M0,8V0H14.256V8H0Z" transform="translate(34.202 0.059)" fill="none" stroke="#003da7" stroke-linecap="round" stroke-linejoin="round" stroke-miterlimit="10" stroke-width="1.5" class="yBCIcxcs_2"/>
      <path id="Stroke_7" data-name="Stroke 7" d="M12.32,7.224H2.053L0,0H14.373Z" transform="translate(3.834 16.077)" fill="none" stroke="#003da7" stroke-linecap="round" stroke-linejoin="round" stroke-miterlimit="10" stroke-width="1.5" class="yBCIcxcs_3"/>
      <path id="Stroke_9" data-name="Stroke 9" d="M0,13.95H3.644V0H0Z" transform="translate(9.198 23.302)" fill="none" stroke="#003da7" stroke-linecap="round" stroke-linejoin="round" stroke-miterlimit="10" stroke-width="1.5" class="yBCIcxcs_4"/>
      <path id="Stroke_11" data-name="Stroke 11" d="M8.935,25.918H0V3.471A3.461,3.461,0,0,1,3.451,0H5.484A3.461,3.461,0,0,1,8.935,3.471Z" transform="translate(6.553 37.252)" fill="none" stroke="#003da7" stroke-linecap="round" stroke-linejoin="round" stroke-miterlimit="10" stroke-width="1.5" class="yBCIcxcs_5"/>
      <path id="Stroke_12" data-name="Stroke 12" d="M0,3.727H21.936V0H0Z" transform="translate(0.052 12.349)" fill="none" stroke="#00a1e0" stroke-linecap="round" stroke-linejoin="round" stroke-miterlimit="10" stroke-width="1.5" class="yBCIcxcs_6"/>
      <path id="Fill_13" data-name="Fill 13" d="M18.474,20.106H8.291A8.315,8.315,0,0,1,0,11.768V0H26.765V11.768a8.315,8.315,0,0,1-8.291,8.338" transform="translate(10.868 43.989)" fill="#fefefe" class="yBCIcxcs_7"/>
      <path id="Stroke_14" data-name="Stroke 14" d="M18.474,20.106H8.291A8.315,8.315,0,0,1,0,11.768V0H26.765V11.768A8.315,8.315,0,0,1,18.474,20.106Z" transform="translate(10.868 43.989)" fill="none" stroke="#b41a83" stroke-linecap="round" stroke-linejoin="round" stroke-miterlimit="10" stroke-width="1.5" class="yBCIcxcs_8"/>
      <path id="Fill_15" data-name="Fill 15" d="M0,7.661H19.363V0H0Z" transform="translate(14.569 36.327)" fill="#fefefe" class="yBCIcxcs_9"/>
      <path id="Stroke_16" data-name="Stroke 16" d="M0,7.661H19.363V0H0Z" transform="translate(14.569 36.327)" fill="none" stroke="#b41a83" stroke-linecap="round" stroke-linejoin="round" stroke-miterlimit="10" stroke-width="1.5" class="yBCIcxcs_10"/>
    </g>
  </g>
<style data-made-with="vivus-instant">.yBCIcxcs_0{stroke-dasharray:39 41;stroke-dashoffset:40;animation:yBCIcxcs_draw 161ms linear 0ms forwards;}.yBCIcxcs_1{stroke-dasharray:167 169;stroke-dashoffset:168;animation:yBCIcxcs_draw 680ms linear 161ms forwards;}.yBCIcxcs_2{stroke-dasharray:45 47;stroke-dashoffset:46;animation:yBCIcxcs_draw 186ms linear 842ms forwards;}.yBCIcxcs_3{stroke-dasharray:40 42;stroke-dashoffset:41;animation:yBCIcxcs_draw 165ms linear 1028ms forwards;}.yBCIcxcs_4{stroke-dasharray:36 38;stroke-dashoffset:37;animation:yBCIcxcs_draw 149ms linear 1194ms forwards;}.yBCIcxcs_5{stroke-dasharray:67 69;stroke-dashoffset:68;animation:yBCIcxcs_draw 275ms linear 1344ms forwards;}.yBCIcxcs_6{stroke-dasharray:52 54;stroke-dashoffset:53;animation:yBCIcxcs_draw 214ms linear 1619ms forwards;}.yBCIcxcs_7{stroke-dasharray:87 89;stroke-dashoffset:88;animation:yBCIcxcs_draw 356ms linear 1834ms forwards;}.yBCIcxcs_8{stroke-dasharray:87 89;stroke-dashoffset:88;animation:yBCIcxcs_draw 356ms linear 2190ms forwards;}.yBCIcxcs_9{stroke-dasharray:55 57;stroke-dashoffset:56;animation:yBCIcxcs_draw 226ms linear 2546ms forwards;}.yBCIcxcs_10{stroke-dasharray:55 57;stroke-dashoffset:56;animation:yBCIcxcs_draw 226ms linear 2773ms forwards;}@keyframes yBCIcxcs_draw{100%{stroke-dashoffset:0;}}@keyframes yBCIcxcs_fade{0%{stroke-opacity:1;}94.44444444444444%{stroke-opacity:1;}100%{stroke-opacity:0;}}</style></svg>
