<svg xmlns="http://www.w3.org/2000/svg" xmlns:xlink="http://www.w3.org/1999/xlink" version="1.1" id="Layer_1" x="0px" y="0px" width="376px" height="300px" viewBox="0 0 376 300" style="" xml:space="preserve">
<style type="text/css">
	.st0{fill:none;stroke:#0041B0;stroke-width:1.3;stroke-linecap:round;stroke-linejoin:round;}
	.st1{fill:none;stroke:#C6D0E0;stroke-width:1.3;stroke-linecap:round;stroke-linejoin:round;}
	.st2{fill-rule:evenodd;clip-rule:evenodd;fill:#FFFFFF;}
	.st3{fill-rule:evenodd;clip-rule:evenodd;fill:#F6F6F6;}
	.st4{fill-rule:evenodd;clip-rule:evenodd;fill:#E5E5ED;}
	.st5{fill:none;stroke:#0041B0;stroke-width:3.26;stroke-linecap:round;stroke-linejoin:round;}
	.st6{fill-rule:evenodd;clip-rule:evenodd;fill:#006FB9;}
	.st7{fill-rule:evenodd;clip-rule:evenodd;fill:#0041B0;}
	.st8{fill:none;stroke:#E5E5ED;stroke-width:0.65;}
	.st9{fill-rule:evenodd;clip-rule:evenodd;fill:#ED7523;}
	.st10{fill-rule:evenodd;clip-rule:evenodd;fill:#D15B00;}
	.st11{fill-rule:evenodd;clip-rule:evenodd;fill:#ED9A61;}
	.st12{fill-rule:evenodd;clip-rule:evenodd;fill:#C6D0E0;}
	.st13{fill:none;stroke:#0041B0;stroke-width:0.65;}
	.st14{fill:none;stroke:#E5E5ED;stroke-width:2.61;stroke-linecap:round;stroke-linejoin:round;}
	.st15{fill:none;stroke:#006FB9;stroke-width:1.3;stroke-linecap:round;stroke-linejoin:round;}
</style>
<g>
	<path class="st0 SIiFGFsj_0" d="M23.04,284.82v-28.65h325.39v28.65"/>
	<path class="st1 SIiFGFsj_1" d="M79.17,129.1h209.99V15.3H79.17V129.1z"/>
	<path class="st1 SIiFGFsj_2" d="M87.84,120.44h192.65V23.96H87.84V120.44z"/>
	<path class="st1 SIiFGFsj_3" d="M226.88,77.52h21.79V48.33h-21.79V77.52z"/>
	<path class="st2 SIiFGFsj_4" d="M243.72,87.41h21.79V58.22h-21.79V87.41z"/>
	<path class="st1 SIiFGFsj_5" d="M243.72,87.41h21.79V58.22h-21.79V87.41z M106.53,98.3h79.74V43.38h-79.74L106.53,98.3z"/>
	<path class="st2 SIiFGFsj_6" d="M211.03,86.92h21.79V57.73h-21.79V86.92z"/>
	<path class="st1 SIiFGFsj_7" d="M211.03,86.92h21.79V57.73h-21.79V86.92z"/>
	<path class="st2 SIiFGFsj_8" d="M51.7,200.53c-1.341-0.325-2.281-1.531-2.27-2.91c0-0.52,0.46-51.7,0.45-63.42c0-7.85,2.78-14.08,7.65-17.1   c3.31-2.07,7.22-2.34,10.44-0.75c5.88,2.9,13.12,14.32,13.93,15.62c0.902,1.37,0.523,3.212-0.847,4.114   c-1.37,0.902-3.212,0.523-4.114-0.847c-0.027-0.042-0.054-0.084-0.079-0.127c-2.7-4.33-8.23-11.81-11.53-13.44   c-1.36-0.68-3.1-0.5-4.66,0.46c-3.09,1.92-4.85,6.31-4.85,12.06c0.02,11.75-0.44,62.97-0.45,63.48   c-0.015,1.64-1.356,2.958-2.996,2.944C52.147,200.612,51.921,200.584,51.7,200.53"/>
	<path class="st0 SIiFGFsj_9" d="M51.7,200.53c-1.341-0.325-2.281-1.531-2.27-2.91c0-0.52,0.46-51.7,0.45-63.42c0-7.85,2.78-14.08,7.65-17.1   c3.31-2.07,7.22-2.34,10.44-0.75c5.88,2.9,13.12,14.32,13.93,15.62c0.902,1.37,0.523,3.212-0.847,4.114   c-1.37,0.902-3.212,0.523-4.114-0.847c-0.027-0.042-0.054-0.084-0.079-0.127c-2.7-4.33-8.23-11.81-11.53-13.44   c-1.36-0.68-3.1-0.5-4.66,0.46c-3.09,1.92-4.85,6.31-4.85,12.06c0.02,11.75-0.44,62.97-0.45,63.48   c-0.015,1.64-1.356,2.958-2.996,2.944C52.147,200.612,51.921,200.584,51.7,200.53z"/>
	<path class="st3 SIiFGFsj_10" d="M74,137.33l9.7-8.64l-1.12-1.35c-0.415-0.467-1.129-0.509-1.595-0.094c-0.002,0.001-0.003,0.003-0.005,0.004   l-8.01,7.15c-0.47,0.41-0.5,1.13-0.1,1.59C72.87,135.99,74,137.33,74,137.33z"/>
	<path class="st2 SIiFGFsj_11" d="M89.76,130.09l-2.37-2.66c-0.526-0.582-1.423-0.631-2.01-0.11l-13.4,11.94c-0.578,0.523-0.632,1.412-0.12,2   l1.6,1.8C79.98,140.49,84.81,135.22,89.76,130.09"/>
	<path class="st4 SIiFGFsj_12" d="M89.76,130.09c-4.95,5.13-9.78,10.4-16.3,12.96l2.94,3.3c0.52,0.58,1.42,0.63,2,0.1l13.4-11.93   c0.6-0.53,0.64-1.43,0.12-2.01L89.76,130.09L89.76,130.09z"/>
	<path class="st0 SIiFGFsj_13" d="M49.91,145.05h5.82 M50.16,160.88h5.07 M49.62,175.73h5.74"/>
	<path class="st2 SIiFGFsj_14" d="M193.9,71.65c25.25-0.27,34.26,17.12,36.34,26.65c2.01,9.2,2.92,26.14-0.05,30.96   c-2.98,4.83-86.8-7.79-86.8-7.79s-5.35-7.05-0.4-14.47c-0.37-8.63,1.14-17.05,6.28-22.92C160.53,71.2,167.44,71.92,193.9,71.65"/>
	<path class="st0 SIiFGFsj_15" d="M193.9,71.65c25.25-0.27,34.26,17.12,36.34,26.65c2.01,9.2,2.92,26.14-0.05,30.96   c-2.98,4.83-86.8-7.79-86.8-7.79s-5.35-7.05-0.4-14.47c-0.37-8.63,1.14-17.05,6.28-22.92C160.53,71.2,167.44,71.92,193.9,71.65z"/>
	<path class="st4 SIiFGFsj_16" d="M140.54,110.58c0,0-0.06,1.37-1.36,1.24c-7.06,5.07-1.6,19.67-2.23,21.65c-0.62,1.98-6.19,4.08-7.05,9.15   c-0.87,5.07-8.42,10.02-7.19,17.56c1.24,7.55,10.65,9.03,10.65,9.03s9.16-2.84,11.89-7.42c2.72-4.57,6.56-14.84,6.56-14.84   l1.76-33.46c0,0-4.73-3.28-13.03-2.9"/>
	<path class="st2 SIiFGFsj_17" d="M133,166.86c12.62-6.67,11.13-20.03,13.36-31.9c0.75-2.23-3.71-2.23-5.94-2.23c1.49-2.23,5.26-2.97,5.2-5.2   c-0.1-3.34-1.3-5.2,0.19-9.65c-1.03-1.57-5.58-2.72-9.1-1.95c-2.99,6.35,0.76,15.87,0.24,17.54c-0.62,1.98-6.19,4.08-7.05,9.15   c-0.87,5.07-8.42,10.02-7.19,17.57c0.96,5.81,6.77,8.02,9.38,8.73c0.07-0.97,0.3-1.76,0.9-2.06"/>
	<path class="st4 SIiFGFsj_18" d="M142.96,113.86c0,0,2.55,0.04,3.71,0.78"/>
	<path class="st0 SIiFGFsj_19" d="M142.96,113.86c0,0,2.55,0.04,3.71,0.78 M140.54,110.58c0,0-0.06,1.37-1.36,1.24   c-7.06,5.07-1.6,19.67-2.23,21.65c-0.62,1.98-6.19,4.08-7.05,9.15c-0.87,5.07-8.42,10.02-7.19,17.56   c1.24,7.55,10.65,9.03,10.65,9.03s9.16-2.84,11.89-7.42c2.72-4.57,6.56-14.84,6.56-14.84l1.76-33.46c0,0-4.73-3.28-13.03-2.9   L140.54,110.58z"/>
	<path class="st0 SIiFGFsj_20" d="M140.54,110.58c0,0-0.06,1.37-1.36,1.24c-7.06,5.07-1.6,19.67-2.23,21.65c-0.62,1.98-6.19,4.08-7.05,9.15   c-0.87,5.07-8.42,10.02-7.19,17.56c1.24,7.55,10.65,9.03,10.65,9.03s9.16-2.84,11.89-7.42c2.72-4.57,6.56-14.84,6.56-14.84   l1.76-33.46c0,0-4.73-3.28-13.03-2.9L140.54,110.58z"/>
	<path class="st2 SIiFGFsj_21" d="M151.32,106.75c0,0,7.92-11,9.78-9.28c1.8,1.68,7.61,3.84,11.33,4.7c4.75,1.11,17.82,0.38,21.07-0.55   c2.68-0.77,10.13,12.7,13.97,12.24c-0.19,0.25,11.57,49.42,13.92,54c2.36,4.57,2.73,17.89,2.73,17.89l-84.81-0.95   c0,0,8.54-31.54,8.66-31.91c0.13-0.37,3.35-32.9,3.35-32.9V106.75L151.32,106.75z"/>
	<path class="st0 SIiFGFsj_22" d="M151.32,106.75c0,0,7.92-11,9.78-9.28c1.8,1.68,7.61,3.84,11.33,4.7c4.75,1.11,17.82,0.38,21.07-0.55   c2.68-0.77,10.13,12.7,13.97,12.24c-0.19,0.25,11.57,49.42,13.92,54c2.36,4.57,2.73,17.89,2.73,17.89l-84.81-0.95   c0,0,8.54-31.54,8.66-31.91c0.13-0.37,3.35-32.9,3.35-32.9V106.75L151.32,106.75z"/>
	<path class="st4 SIiFGFsj_23" d="M220.73,168.2c-1.36-2.66-5.58-19.18-7.97-28.79c-1.47-5.87-3.01-12.24-4.25-17.48   c-0.604-2.44-1.164-4.89-1.68-7.35c-1.3-0.22-2.75-1.37-4.28-2.96c2.56,28.52-0.07,46.27-8.87,73.25l29.68,0.13   C223.23,175.97,222.53,171.7,220.73,168.2"/>
	<path class="st3 SIiFGFsj_24" d="M159.73,56.72l2.57,11.69l5.3,11.6l5.75,1.01l1.92,3.03c0,0-0.12,3.4,3.16,4.4c3.14,0.94,9.25,0.72,15.23-5.63   c6.81-7.24,5.2-11.07,5.26-13.67c0,0-2.29-7.55-1.92-8.9c0.37-1.37,2.48-0.87,3.16-6.13c0.68-5.26-3.96-17.07-3.96-17.07   S159.73,56.72,159.73,56.72z"/>
	<path class="st0 SIiFGFsj_25" d="M159.73,56.72l2.57,11.69l5.3,11.6l5.75,1.01l1.92,3.03c0,0-0.12,3.4,3.16,4.4c3.14,0.94,9.25,0.72,15.23-5.63   c6.81-7.24,5.2-11.07,5.26-13.67c0,0-2.29-7.55-1.92-8.9c0.37-1.37,2.48-0.87,3.16-6.13c0.68-5.26-3.96-17.07-3.96-17.07   S159.73,56.72,159.73,56.72z"/>
	<path class="st5 SIiFGFsj_26" d="M175.09,79.3c0,0-12.5,12.11-14.98,21.51"/>
	<path class="st6 SIiFGFsj_27" d="M175.58,77.87l-6.31-0.65l-2.79-6.12l3.9,0.92c0,0,4.14-0.05,5.77-0.84c1.2-0.58,2.03,3.63,2.03,3.63   S175.58,77.87,175.58,77.87z M198.18,38.47l-3.6-0.99l-9.62,7.64l2.6,4l4,4.81l-1.21,5.57l-1.12,7.14l-3.06,4.83l-4.37,2.97   l-2.22-5.85l-5.2-0.74l-4.28,1.95l-3.34-1.67l-1.86,1.39l-2.6-1.11l5.3,11.6l9.93,1.57l3.9-2.13l3.16-2.32l8.64-9.28l1.76-5.57   l-1.02-9.09c0,0-0.65-5.29,1.86-6.68c2.5-1.39,3.77,1.92,3.77,1.92L198.18,38.47L198.18,38.47z"/>
	<path class="st0 SIiFGFsj_28" d="M175.58,77.87l-6.31-0.65l-2.79-6.12l3.9,0.92c0,0,4.14-0.05,5.77-0.84c1.2-0.58,2.03,3.63,2.03,3.63   S175.58,77.87,175.58,77.87z M198.18,38.47l-3.6-0.99l-9.62,7.64l2.6,4l4,4.81l-1.21,5.57l-1.12,7.14l-3.06,4.83l-4.37,2.97   l-2.22-5.85l-5.2-0.74l-4.28,1.95l-3.34-1.67l-1.86,1.39l-2.6-1.11l5.3,11.6l9.93,1.57l3.9-2.13l3.16-2.32l8.64-9.28l1.76-5.57   l-1.02-9.09c0,0-0.65-5.29,1.86-6.68c2.5-1.39,3.77,1.92,3.77,1.92L198.18,38.47L198.18,38.47z"/>
	<path class="st7 SIiFGFsj_29" d="M195.83,46.51c2.5-1.39,3.77,1.92,3.77,1.92l-1.42-9.96l-3.6-0.99l-9.62,7.64l2.6,4l4,4.81l-0.47,2.15   c1.12,0.39,2.25,0.72,3.33,1.11l-0.45-4C193.97,53.19,193.32,47.9,195.83,46.51"/>
	<path class="st4 SIiFGFsj_30" d="M200.72,70.5c0,0-2.23,17.57-8.17,34.64"/>
	<path class="st5 SIiFGFsj_31" d="M200.72,70.5c0,0-2.23,17.57-8.17,34.64"/>
	<path class="st0 SIiFGFsj_32" d="M207.2,98.3c-2.96,6.84,0.7,17.48,0.7,17.48 M154.41,101.8c0,0-0.74-5.81-0.5-8.53"/>
	<path class="st2 SIiFGFsj_33" d="M197.97,33.64c-3.5-7.8-12.52-10.68-24.06-9.2c-13.1,1.66-14.4,20.77-14.4,20.77c-1.06,3.79,4.27,5.37,10.1,6   C180.56,47.74,191.55,42.78,197.97,33.64"/>
	<path class="st4 SIiFGFsj_34" d="M199.08,37.05c-0.246-1.172-0.614-2.315-1.1-3.41c-6.43,9.14-17.42,14.1-28.38,17.56   c6.32,0.68,13.23,0.23,13.23,0.23l10.49-5.47c0,0,6.96-3.25,5.76-8.9"/>
	<path class="st0 SIiFGFsj_35" d="M159.52,45.21c0,0,1.3-19.1,14.4-20.78c13.09-1.67,22.94,2.25,25.16,12.62c1.2,5.66-5.76,8.9-5.76,8.9   l-10.5,5.48C182.82,51.43,157.29,53.1,159.52,45.21z"/>
	<path class="st4 SIiFGFsj_36" d="M167.9,165.38c0,0,18.2-7.24,21.18-21.52c0,0-21.8,14.04-31.82,4.2c0,0-1.98,21.59,10.65,17.32"/>
	<path class="st0 SIiFGFsj_37" d="M365.27,238.81H11.65l17.21-57.4H49.6v12.63h5.9v-12.63h289.96L365.27,238.81z"/>
	<path class="st7 SIiFGFsj_38" d="M220.16,223.47H29.98l8.42-31.67h181.76V223.47z"/>
	<path class="st0 SIiFGFsj_39" d="M220.16,223.47H29.98l8.42-31.67h181.76V223.47z"/>
	<path class="st2 SIiFGFsj_40" d="M220.16,223.47H36.73l6.32-24l177.2-0.55L220.16,223.47z"/>
	<path class="st0 SIiFGFsj_41" d="M220.16,223.47H36.73l6.32-24l177.2-0.55L220.16,223.47z"/>
	<path class="st3 SIiFGFsj_42" d="M188.52,210.7c0,4.77-25.39,8.63-56.71,8.63c-31.33,0-56.72-3.86-56.72-8.63c0-4.76,25.4-8.62,56.72-8.62   S188.52,205.94,188.52,210.7 M158.24,45.95c0.521-0.416,1.174-0.632,1.84-0.61c4.09,0.13,19.12,0.78,22,2.94   c2.63,1.96-0.02,3.93-1.27,4.69c-0.47,0.28-0.9,0.61-1.31,0.98l-6.52,5.99c-0.58,0.53-1.31,0.87-2.1,0.96   c-1.29,0.15-3.54,0.16-6.9-0.66c-4.025-0.943-8.13-1.502-12.26-1.67c0,0-3.9,0.19-3.53-2.32   C148.54,53.85,155.78,47.91,158.24,45.95"/>
	<path class="st0 SIiFGFsj_43" d="M158.24,45.95c0.521-0.416,1.174-0.632,1.84-0.61c4.09,0.13,19.12,0.78,22,2.94c2.63,1.96-0.02,3.93-1.27,4.69   c-0.47,0.28-0.9,0.61-1.31,0.98l-6.52,5.99c-0.58,0.53-1.31,0.87-2.1,0.96c-1.29,0.15-3.54,0.16-6.9-0.66   c-4.025-0.943-8.13-1.502-12.26-1.67c0,0-3.9,0.19-3.53-2.32C148.54,53.85,155.78,47.91,158.24,45.95z"/>
	<path class="st3 SIiFGFsj_44" d="M158.24,45.95c0.521-0.416,1.174-0.632,1.84-0.61c4.09,0.13,19.12,0.78,22,2.94c2.63,1.96-0.02,3.93-1.27,4.69   c-0.47,0.28-0.9,0.61-1.31,0.98l-6.52,5.99c-0.58,0.53-1.31,0.87-2.1,0.96c-1.29,0.15-3.54,0.16-6.9-0.66   c-4.025-0.943-8.13-1.502-12.26-1.67c0,0-3.9,0.19-3.53-2.32C148.54,53.85,155.78,47.91,158.24,45.95"/>
	<path class="st0 SIiFGFsj_45" d="M158.24,45.95c0.521-0.416,1.174-0.632,1.84-0.61c4.09,0.13,19.12,0.78,22,2.94c2.63,1.96-0.02,3.93-1.27,4.69   c-0.47,0.28-0.9,0.61-1.31,0.98l-6.52,5.99c-0.58,0.53-1.31,0.87-2.1,0.96c-1.29,0.15-3.54,0.16-6.9-0.66   c-4.025-0.943-8.13-1.502-12.26-1.67c0,0-3.9,0.19-3.53-2.32C148.54,53.85,155.78,47.91,158.24,45.95z"/>
	<path class="st4 SIiFGFsj_46" d="M220.16,223.47l0.03-8.24c-3.74,1.9-6.8,5.27-10.54,8.24h10.5H220.16z"/>
	<path class="st8 SIiFGFsj_47" d="M220.16,223.47l0.03-8.24c-3.74,1.9-6.8,5.27-10.54,8.24h10.5H220.16z"/>
	<path class="st4 SIiFGFsj_48" d="M59.2,211.12c0-3.02,6.78-5.75,17.81-7.77c-14.38,1.93-23.44,4.73-23.44,7.85c0,3.38,8.6,6.83,19.74,6.96   c-9.6-2.1-14.1-3.7-14.1-7.04"/>
	<path class="st8 SIiFGFsj_49" d="M59.2,211.12c0-3.02,6.78-5.75,17.81-7.77c-14.38,1.93-23.44,4.73-23.44,7.85c0,3.38,8.6,6.83,19.74,6.96   c-9.6-2.1-14.1-3.7-14.1-7.04L59.2,211.12z"/>
	<path class="st4 SIiFGFsj_50" d="M206.15,211.2c0-2.81-6.6-5.93-19.12-7.42c-0.27-0.04-0.34,0.37-0.07,0.43c8.5,1.9,13.55,4.3,13.55,6.9   c0,2.68-3.06,4.78-11.07,6.57c-0.48,0.1-0.36,0.82,0.13,0.77C200.97,217.17,206.15,214.05,206.15,211.2"/>
	<path class="st8 SIiFGFsj_51" d="M206.15,211.2c0-2.81-6.6-5.93-19.12-7.42c-0.27-0.04-0.34,0.37-0.07,0.43c8.5,1.9,13.55,4.3,13.55,6.9   c0,2.68-3.06,4.78-11.07,6.57c-0.48,0.1-0.36,0.82,0.13,0.77C200.97,217.17,206.15,214.05,206.15,211.2L206.15,211.2z"/>
	<path class="st4 SIiFGFsj_52" d="M131.65,203.2h-0.23c27.38,0,49.56,3.23,49.56,7.2c0,4-22.23,7.22-49.66,7.22s-49.66-3.23-49.66-7.21   s22.1-7.2,49.4-7.22c-32.46,0.04-58.69,3.44-58.69,7.63c0,4.21,26.54,7.63,59.28,7.63c32.73,0,59.27-3.42,59.27-7.63   s-26.54-7.63-59.27-7.63"/>
	<path class="st8 SIiFGFsj_53" d="M131.65,203.2h-0.23c27.38,0,49.56,3.23,49.56,7.2c0,4-22.23,7.22-49.66,7.22s-49.66-3.23-49.66-7.21   s22.1-7.2,49.4-7.22c-32.46,0.04-58.69,3.44-58.69,7.63c0,4.21,26.54,7.63,59.28,7.63c32.73,0,59.27-3.42,59.27-7.63   s-26.54-7.63-59.27-7.63V203.2z"/>
	<path class="st0 SIiFGFsj_54" d="M220.16,223.47H36.73l6.32-24l177.2-0.55L220.16,223.47z"/>
	<path class="st9 SIiFGFsj_55" d="M120.73,159.57c0,0-8.17,10.76-8.66,16.7c-0.5,5.93,0,10.5,1.11,11.62c0,0-0.37,7.92,4.95,6.68   c5.33-1.24,5.45-8.41,5.45-8.41l3.34-7.05l11.77-6.3C138.69,172.81,139.92,153.63,120.73,159.57"/>
	<path class="st0 SIiFGFsj_56" d="M120.73,159.57c0,0-8.17,10.76-8.66,16.7c-0.5,5.93,0,10.5,1.11,11.62c0,0-0.37,7.92,4.95,6.68   c5.33-1.24,5.45-8.41,5.45-8.41l3.34-7.05l11.77-6.3C138.69,172.81,139.92,153.63,120.73,159.57L120.73,159.57z"/>
	<path class="st10 SIiFGFsj_57" d="M137.06,164.28c-4.59,6.55-12.08,10.2-16.95,16.46c-2.706,3.068-4.943,6.518-6.64,10.24   c0.47,2.07,1.65,4.29,4.66,3.6c5.33-1.25,5.45-8.42,5.45-8.42l3.34-7.05l11.77-6.3C138.69,172.81,138.97,168.26,137.06,164.28"/>
	<path class="st0 SIiFGFsj_58" d="M120.73,159.57c0,0-8.17,10.76-8.66,16.7c-0.5,5.93,0,10.5,1.11,11.62c0,0-0.37,7.92,4.95,6.68   c5.33-1.24,5.45-8.41,5.45-8.41l3.34-7.05l11.77-6.3C138.69,172.81,139.92,153.63,120.73,159.57L120.73,159.57z M117.76,183.69   c0,0-0.37,6.3-4.58,4.2"/>
	<path class="st3 SIiFGFsj_59" d="M112.31,174.78c-0.15-5.9,7.1-7.89,10.8-6.28c4.1,1.77,7.1,5.74,5.84,16.23c-0.085,0.685-0.185,1.369-0.3,2.05   l2.73-0.25c0,0-1.3-3.59,1.8-3.4c0.61-2.66,3.65-0.06,4.14,1.42c0,0,18.17,6.16,13.47,25.33c0,0-18.08,8.07-33.83,1.64   c-10.16-4.15-6.38-12-3.78-14.1s6.04-11.38,2.79-15.28C113.21,178.84,112.47,181,112.31,174.78"/>
	<path class="st0 SIiFGFsj_60" d="M112.31,174.78c-0.15-5.9,7.1-7.89,10.8-6.28c4.1,1.77,7.1,5.74,5.84,16.23c-0.085,0.685-0.185,1.369-0.3,2.05   l2.73-0.25c0,0-1.3-3.59,1.8-3.4c0.61-2.66,3.65-0.06,4.14,1.42c0,0,18.17,6.16,13.47,25.33c0,0-18.08,8.07-33.83,1.64   c-10.16-4.15-6.38-12-3.78-14.1s6.04-11.38,2.79-15.28C113.21,178.84,112.47,181,112.31,174.78z"/>
	<path class="st2 SIiFGFsj_61" d="M112.31,174.78c-0.15-5.9,7.1-7.89,10.8-6.28c4.1,1.77,7.1,5.74,5.84,16.23c-0.085,0.685-0.185,1.369-0.3,2.05   l2.73-0.25c0,0-1.3-3.59,1.8-3.4c0.61-2.66,3.65-0.06,4.14,1.42c0,0,18.17,6.16,13.47,25.33c0,0-18.08,8.07-33.83,1.64   c-10.16-4.15-6.38-12-3.78-14.1s6.04-11.38,2.79-15.28C113.21,178.84,112.47,181,112.31,174.78"/>
	<path class="st0 SIiFGFsj_62" d="M112.31,174.78c-0.15-5.9,7.1-7.89,10.8-6.28c4.1,1.77,7.1,5.74,5.84,16.23c-0.085,0.685-0.185,1.369-0.3,2.05   l2.73-0.25c0,0-1.3-3.59,1.8-3.4c0.61-2.66,3.65-0.06,4.14,1.42c0,0,18.17,6.16,13.47,25.33c0,0-18.08,8.07-33.83,1.64   c-10.16-4.15-6.38-12-3.78-14.1s6.04-11.38,2.79-15.28C113.21,178.84,112.47,181,112.31,174.78z"/>
	<path class="st7 SIiFGFsj_63" d="M122.65,173.23c0.001,0.718-0.581,1.301-1.299,1.301c-0.718,0.001-1.301-0.581-1.301-1.299   c0-0.001,0-0.002,0-0.003c0.001-0.718,0.583-1.299,1.301-1.299C122.068,171.932,122.649,172.513,122.65,173.23"/>
	<path class="st0 SIiFGFsj_64" d="M131.5,199.02c0,0-4.82,0.5-2.55-14.3 M132.12,194.82c0,0-2.72,0.37-3.59-2.1 M134.85,186.96   c0,0-1.8-0.61-3.47-0.43"/>
	<path class="st2 SIiFGFsj_65" d="M141.48,214.77c0.643-1.394,0.035-3.046-1.359-3.689c-0.943-0.435-2.05-0.308-2.871,0.329   c0.02-0.14,0.04-0.28,0.04-0.42c-0.007-1.535-1.258-2.774-2.793-2.767c-0.796,0.004-1.552,0.348-2.077,0.947   c-0.805-1.308-2.517-1.715-3.825-0.91c-0.246,0.152-0.467,0.341-0.655,0.56c-1.177-0.968-2.916-0.799-3.885,0.378   c-0.515,0.625-0.728,1.445-0.585,2.242c-0.942-0.5-2.087-0.41-2.94,0.23c-0.682-0.588-1.607-0.808-2.48-0.59   c-0.647-0.465-1.463-0.629-2.24-0.45c-0.543-1.436-2.148-2.159-3.584-1.616c-0.155,0.059-0.304,0.131-0.446,0.216   c-0.008-0.932-0.486-1.797-1.27-2.3c0.634-0.87,0.704-2.03,0.18-2.97c1.522,0.202,2.92-0.868,3.122-2.39   c0.165-1.245-0.524-2.445-1.682-2.93c0.52-0.39,0.9-0.95,1.06-1.6c1.523-0.191,2.604-1.58,2.413-3.104   c-0.191-1.523-1.58-2.604-3.104-2.413c-1.151,0.144-2.092,0.988-2.36,2.117c-0.2,0.03-0.38,0.07-0.56,0.13   c0.596-1.417-0.068-3.049-1.485-3.645c-1.417-0.596-3.049,0.068-3.645,1.485l0,0c-0.458-0.967-1.43-1.585-2.5-1.59   c-0.12,0-0.23,0.03-0.34,0.04c0.722-1.343,0.218-3.016-1.124-3.738s-3.016-0.218-3.738,1.124c-0.256,0.476-0.366,1.016-0.318,1.553   c-0.3-0.04-0.6-0.02-0.91,0.05c-0.993-1.171-2.747-1.315-3.918-0.322c-0.615,0.522-0.974,1.285-0.982,2.092   c-1.065-0.917-2.65-0.887-3.68,0.07c-0.555-1.431-2.166-2.142-3.597-1.587c-1.256,0.487-1.982,1.805-1.723,3.127   c-0.73,0.13-1.37,0.56-1.78,1.15c-0.22-0.05-0.44-0.1-0.68-0.1c-1.15,0-2.14,0.7-2.56,1.7c-1.114-0.735-2.594-0.571-3.52,0.39   c-0.991-1.165-2.739-1.307-3.905-0.315c-0.623,0.53-0.98,1.308-0.975,2.125c0.004,1.535,1.252,2.777,2.788,2.772   c0.413-0.001,0.82-0.094,1.192-0.272c-0.439,1.471,0.397,3.02,1.869,3.459c1.077,0.322,2.242-0.037,2.951-0.909   c0.047,1.35,1.061,2.47,2.4,2.65c-0.231,1.518,0.811,2.936,2.329,3.167c1.278,0.195,2.521-0.517,3.001-1.717l0.17,0.04   c0.286,1.206,1.342,2.073,2.58,2.12c-0.868,1.126-0.738,2.728,0.3,3.7c-0.08,0.27-0.14,0.54-0.14,0.83c0,1.18,0.75,2.19,1.8,2.59   c-0.2,0.37-0.31,0.8-0.31,1.24c-0.003,1.535,1.239,2.783,2.774,2.786c1.158,0.002,2.196-0.713,2.606-1.796   c1.29,0.823,3.002,0.444,3.825-0.846c0.005-0.008,0.01-0.016,0.015-0.024c0.547,1.435,2.154,2.154,3.588,1.607   c0.309-0.118,0.594-0.289,0.842-0.507c1.052,0.688,2.436,0.581,3.37-0.26c1.067,1.097,2.82,1.121,3.917,0.054   c0.028-0.027,0.056-0.056,0.083-0.084c-0.06,0.22-0.1,0.44-0.1,0.68c-0.002,1.535,1.241,2.782,2.776,2.783   c0.868,0.001,1.687-0.403,2.214-1.093c0.671,1.381,2.334,1.957,3.715,1.286c0.495-0.24,0.907-0.622,1.185-1.096   c1.105,1.066,2.865,1.034,3.931-0.071c0.29-0.301,0.508-0.662,0.639-1.059c1.268,0.467,2.687-0.048,3.36-1.22   c0.28,0.04,0.55,0.04,0.83,0c0.807,1.244,2.448,1.636,3.73,0.89c0.846,1.282,2.57,1.635,3.851,0.79   c0.504-0.333,0.886-0.82,1.089-1.39c0.932,1.213,2.671,1.441,3.884,0.509c1.213-0.932,1.441-2.671,0.509-3.884   c-0.089-0.116-0.187-0.225-0.293-0.325"/>
	<path class="st0 SIiFGFsj_66" d="M141.48,214.77c0.643-1.394,0.035-3.046-1.359-3.689c-0.943-0.435-2.05-0.308-2.871,0.329   c0.02-0.14,0.04-0.28,0.04-0.42c-0.007-1.535-1.258-2.774-2.793-2.767c-0.796,0.004-1.552,0.348-2.077,0.947   c-0.805-1.308-2.517-1.715-3.825-0.91c-0.246,0.152-0.467,0.341-0.655,0.56c-1.177-0.968-2.916-0.799-3.885,0.378   c-0.515,0.625-0.728,1.445-0.585,2.242c-0.942-0.5-2.087-0.41-2.94,0.23c-0.682-0.588-1.607-0.808-2.48-0.59   c-0.647-0.465-1.463-0.629-2.24-0.45c-0.543-1.436-2.148-2.159-3.584-1.616c-0.155,0.059-0.304,0.131-0.446,0.216   c-0.008-0.932-0.486-1.797-1.27-2.3c0.634-0.87,0.704-2.03,0.18-2.97c1.522,0.202,2.92-0.868,3.122-2.39   c0.165-1.245-0.524-2.445-1.682-2.93c0.52-0.39,0.9-0.95,1.06-1.6c1.523-0.191,2.604-1.58,2.413-3.104   c-0.191-1.523-1.58-2.604-3.104-2.413c-1.151,0.144-2.092,0.988-2.36,2.117c-0.2,0.03-0.38,0.07-0.56,0.13   c0.596-1.417-0.068-3.049-1.485-3.645c-1.417-0.596-3.049,0.068-3.645,1.485l0,0c-0.458-0.967-1.43-1.585-2.5-1.59   c-0.12,0-0.23,0.03-0.34,0.04c0.722-1.343,0.218-3.016-1.124-3.738s-3.016-0.218-3.738,1.124c-0.256,0.476-0.366,1.016-0.318,1.553   c-0.3-0.04-0.6-0.02-0.91,0.05c-0.993-1.171-2.747-1.315-3.918-0.322c-0.615,0.522-0.974,1.285-0.982,2.092   c-1.065-0.917-2.65-0.887-3.68,0.07c-0.555-1.431-2.166-2.142-3.597-1.587c-1.256,0.487-1.982,1.805-1.723,3.127   c-0.73,0.13-1.37,0.56-1.78,1.15c-0.22-0.05-0.44-0.1-0.68-0.1c-1.15,0-2.14,0.7-2.56,1.7c-1.114-0.735-2.594-0.571-3.52,0.39   c-0.991-1.165-2.739-1.307-3.905-0.315c-0.623,0.53-0.98,1.308-0.975,2.125c0.004,1.535,1.252,2.777,2.788,2.772   c0.413-0.001,0.82-0.094,1.192-0.272c-0.439,1.471,0.397,3.02,1.869,3.459c1.077,0.322,2.242-0.037,2.951-0.909   c0.047,1.35,1.061,2.47,2.4,2.65c-0.231,1.518,0.811,2.936,2.329,3.167c1.278,0.195,2.521-0.517,3.001-1.717l0.17,0.04   c0.286,1.206,1.342,2.073,2.58,2.12c-0.868,1.126-0.738,2.728,0.3,3.7c-0.08,0.27-0.14,0.54-0.14,0.83c0,1.18,0.75,2.19,1.8,2.59   c-0.2,0.37-0.31,0.8-0.31,1.24c-0.003,1.535,1.239,2.783,2.774,2.786c1.158,0.002,2.196-0.713,2.606-1.796   c1.29,0.823,3.002,0.444,3.825-0.846c0.005-0.008,0.01-0.016,0.015-0.024c0.547,1.435,2.154,2.154,3.588,1.607   c0.309-0.118,0.594-0.289,0.842-0.507c1.052,0.688,2.436,0.581,3.37-0.26c1.067,1.097,2.82,1.121,3.917,0.054   c0.028-0.027,0.056-0.056,0.083-0.084c-0.06,0.22-0.1,0.44-0.1,0.68c-0.002,1.535,1.241,2.782,2.776,2.783   c0.868,0.001,1.687-0.403,2.214-1.093c0.671,1.381,2.334,1.957,3.715,1.286c0.495-0.24,0.907-0.622,1.185-1.096   c1.105,1.066,2.865,1.034,3.931-0.071c0.29-0.301,0.508-0.662,0.639-1.059c1.268,0.467,2.687-0.048,3.36-1.22   c0.28,0.04,0.55,0.04,0.83,0c0.807,1.244,2.448,1.636,3.73,0.89c0.846,1.282,2.57,1.635,3.851,0.79   c0.504-0.333,0.886-0.82,1.089-1.39c0.932,1.213,2.671,1.441,3.884,0.509c1.213-0.932,1.441-2.671,0.509-3.884   c-0.089-0.116-0.187-0.225-0.293-0.325L141.48,214.77z"/>
	<path class="st11 SIiFGFsj_67" d="M109.48,174.26c0,0,3.03-1.16,4.2-0.68c1.16,0.48,4.63,2.02,3.53,4.16c-1.1,2.15-9.16,1.96-11.13,1.09   C104.12,177.95,103.32,175.77,109.48,174.26"/>
	<path class="st0 SIiFGFsj_68" d="M109.48,174.26c0,0,3.03-1.16,4.2-0.68c1.16,0.48,4.63,2.02,3.53,4.16c-1.1,2.15-9.16,1.96-11.13,1.09   C104.12,177.95,103.32,175.77,109.48,174.26z"/>
	<path class="st4 SIiFGFsj_69" d="M232.38,123.5c-8.73,2.5-23.37,0.57-23.37,0.57v2.13c-4.96,3.83-1.61,11.5-1.61,11.5   c-4.74,5.47,0.68,11.41,0.68,11.41c-8.3-1.02-8.39,7.33-8.39,7.33c-11.23-0.15-14.17,11.04-14.17,11.04   c-6.32,0.47-8.64,10.86-8.64,10.86l6.13,13.08c0,0,4.43-1.6,8.27-2.04c25.9-2.95,32.58-22.74,32.58-22.74   c10.9-2.35,11.58-40.54,8.7-40.82L232.38,123.5L232.38,123.5z"/>
	<path class="st2 SIiFGFsj_70" d="M218.17,159.96c2.23,0.74,4.46,0,5.94-1.48c6.69-9.65,3.72-20.04,5.2-30.43c-6.7-0.61-14.4,0.77-21.05-1.17   c-3.84,3.99-0.86,10.82-0.86,10.82c-4.74,5.47,0.68,11.41,0.68,11.41c-8.3-1.02-8.39,7.33-8.39,7.33   c-11.23-0.15-14.17,11.04-14.17,11.04c-6.32,0.47-8.64,10.86-8.64,10.86l5.5,11.71C199.13,186.91,216.89,177.83,218.17,159.96"/>
	<path class="st0 SIiFGFsj_71" d="M232.38,123.5c-8.73,2.5-23.37,0.57-23.37,0.57v2.13c-4.96,3.83-1.61,11.5-1.61,11.5   c-4.74,5.47,0.68,11.41,0.68,11.41c-8.3-1.02-8.39,7.33-8.39,7.33c-11.23-0.15-14.17,11.04-14.17,11.04   c-6.32,0.47-8.64,10.86-8.64,10.86l6.13,13.08c0,0,4.43-1.6,8.27-2.04c25.9-2.95,32.58-22.74,32.58-22.74   c10.9-2.35,11.58-40.54,8.7-40.82L232.38,123.5L232.38,123.5z"/>
	<path class="st10 SIiFGFsj_72" d="M160.72,187.64l16.44-15.33c0.37,0.04,21.25,14.17,13.28,23.5c0,0-21.8,7.54-23.03,7.91   c0,0-6.69,3.84-9.66,4.2c-2.97,0.38-5.94-0.36-6.31-2.22c0,0,0.37-10.51-6.44-10.14c-6.8,0.37-11.89,1.11-12.88-1.24   s4.09-4.94,10.03-6.43C142.15,187.89,152.18,185.42,160.72,187.64"/>
	<path class="st0 SIiFGFsj_73" d="M160.72,187.64l16.44-15.33c0.37,0.04,21.25,14.17,13.28,23.5c0,0-21.8,7.54-23.03,7.91   c0,0-6.69,3.84-9.66,4.2c-2.97,0.38-5.94-0.36-6.31-2.22c0,0,0.37-10.51-6.44-10.14c-6.8,0.37-11.89,1.11-12.88-1.24   s4.09-4.94,10.03-6.43C142.15,187.89,152.18,185.42,160.72,187.64z"/>
	<path class="st9 SIiFGFsj_74" d="M189.05,183.15c-4.37-5.92-11.67-10.82-11.89-10.84l-16.43,15.33c-8.55-2.22-18.58,0.25-18.58,0.25   c-5.94,1.49-11.02,4.08-10.03,6.43c1,2.35,6.07,1.61,12.88,1.24c2.5-0.14,4.04,1.2,4.98,2.95c6.48-0.83,13.48,0.28,18.42-2.18   C175.15,192.95,181.3,186.53,189.05,183.15"/>
	<path class="st4 SIiFGFsj_75" d="M228.7,127.65c0,0,1.98,0.25-4.33,0.62"/>
	<path class="st0 SIiFGFsj_76" d="M228.7,127.65c0,0,1.98,0.25-4.33,0.62"/>
	<path class="st4 SIiFGFsj_77" d="M213.1,127.94c0,0,3.35,0.7,5.08,0.54"/>
	<path class="st0 SIiFGFsj_78" d="M213.1,127.94c0,0,3.35,0.7,5.08,0.54 M160.72,187.64l16.44-15.33c0.37,0.04,21.25,14.17,13.28,23.5   c0,0-21.8,7.54-23.03,7.91c0,0-6.69,3.84-9.66,4.2c-2.97,0.38-5.94-0.36-6.31-2.22c0,0,0.37-10.51-6.44-10.14   c-6.8,0.37-11.89,1.11-12.88-1.24s4.09-4.94,10.03-6.43C142.15,187.89,152.18,185.42,160.72,187.64z"/>
	<path class="st12 SIiFGFsj_79" d="M300.58,200.01c0,5.29-8.04,9.57-17.95,9.57c-9.92,0-17.96-4.28-17.96-9.57c0-5.28,8.04-9.57,17.96-9.57   C292.54,190.44,300.58,194.73,300.58,200.01"/>
	<path class="st9 SIiFGFsj_80" d="M269.38,180.47c2.6-4.57,7.3-13.48,10.78-12.74c3.46,0.75,14.73,12.37,14.48,15.84   c-0.25,3.46-0.25,3.21-0.25,3.21s4.59,0.62,6.44,2.97c1.86,2.35,2.92,5.98-6.56,12.5c-7.34,5.03-8.17,5.31-8.17,5.31   s-3.72-3.58-3.6-4.82c0.13-1.24-6.55,2.14-11.26-1.98C265.9,196.08,266.78,185.05,269.38,180.47"/>
	<path class="st0 SIiFGFsj_81" d="M269.38,180.47c2.6-4.57,7.3-13.48,10.78-12.74c3.46,0.75,14.73,12.37,14.48,15.84   c-0.25,3.46-0.25,3.21-0.25,3.21s4.59,0.62,6.44,2.97c1.86,2.35,2.92,5.98-6.56,12.5c-7.34,5.03-8.17,5.31-8.17,5.31   s-3.72-3.58-3.6-4.82c0.13-1.24-6.55,2.14-11.26-1.98C265.9,196.08,266.78,185.05,269.38,180.47z"/>
	<path class="st10 SIiFGFsj_82" d="M277.56,187.34c0,0-3.98-2.94-1.94-10.75c0.04-0.16,0.1-0.32,0.16-0.48c0.47-1.22,2.63-6.6,3.94-5.83   c0,0,1.05,1.35-1.17,9.02c0,0-1.8,4.57-1,8.04 M282.73,202.4c0,0,1.3,2,1.95,2.44c0.65,0.43,12.25-8.41,12.87-9.1   c0.62-0.67,1.24-3.76-3.4-0.67C290.372,197.558,286.565,200.001,282.73,202.4"/>
	<path class="st0 SIiFGFsj_83" d="M298.36,193.46c-0.62-1.48-9.41,5.44-9.41,5.44s-3.73,2.8-7.08,3.64 M279.6,170.64   c1.63,0.43-0.87,7.3-1.55,9.15c-0.6,1.62-1.73,6.68-0.5,7.55c1.24,0.86,9.66-2.94,16.84-0.56"/>
	<path class="st12 SIiFGFsj_84" d="M266.7,215.81c0,4.1-6.88,7.42-15.35,7.42c-8.48,0-15.36-3.32-15.36-7.42s6.88-7.42,15.36-7.42   C259.82,208.39,266.7,211.71,266.7,215.81"/>
	<path class="st4 SIiFGFsj_85" d="M250.13,159.05c0,0-8.64,7.42-8.92,23.19c-0.27,15.77-0.74,28.85,0.47,32.47c1.2,3.62,4.36,8.35,13.56,7.7   c9.19-0.65,11.33-4.08,11.33-4.08s2.22-3.44,2.41-7.42c0.19-4,0.56-27-0.28-29.32c-0.83-2.32-2.6-5.2-2.97-6.03   s0.65-2.97,0.56-4.08c-0.1-1.11-3.44-11.69-6.87-12.62c-3.44-0.92-9.3,0.19-9.3,0.19"/>
	<path class="st0 SIiFGFsj_86" d="M250.13,159.05c0,0-8.64,7.42-8.92,23.19c-0.27,15.77-0.74,28.85,0.47,32.47c1.2,3.62,4.36,8.35,13.56,7.7   c9.19-0.65,11.33-4.08,11.33-4.08s2.22-3.44,2.41-7.42c0.19-4,0.56-27-0.28-29.32c-0.83-2.32-2.6-5.2-2.97-6.03   s0.65-2.97,0.56-4.08c-0.1-1.11-3.44-11.69-6.87-12.62c-3.44-0.92-9.3,0.19-9.3,0.19H250.13z"/>
	<path class="st6 SIiFGFsj_87" d="M265.73,175.56c-0.32-0.71,0.82-3.13,0.42-4.7c-8.2,1.01-15.33,1.94-23.1,0.2c-0.73,2.75-1.77,7.59-1.84,11.18   c-0.27,15.77-0.74,28.85,0.47,32.47c1.2,3.62,4.36,8.35,13.56,7.7c9.19-0.65,11.33-4.08,11.33-4.08s2.22-3.44,2.41-7.42   c0.19-4,0.56-27-0.28-29.32C267.87,179.27,266.1,176.39,265.73,175.56"/>
	<path class="st7 SIiFGFsj_88" d="M243.52,169.85l-0.4,1.34c2.47,3.65,23.95,1.92,22.8-0.65C264.85,167.73,248.22,167.24,243.52,169.85    M243.26,217.88c1.89,2.68,5.37,5,11.98,4.53c9.19-0.65,11.33-4.08,11.33-4.08s2.22-3.44,2.41-7.42c0.07-1.6,0.18-6.28,0.22-11.44   c-3.31,11.54-13.17,19.43-25.94,18.4"/>
	<path class="st0 SIiFGFsj_89" d="M250.13,159.05c0,0-8.64,7.42-8.92,23.19c-0.27,15.77-0.74,28.85,0.47,32.47c1.2,3.62,4.36,8.35,13.56,7.7   c9.19-0.65,11.33-4.08,11.33-4.08s2.22-3.44,2.41-7.42c0.19-4,0.56-27-0.28-29.32c-0.83-2.32-2.6-5.2-2.97-6.03   s0.65-2.97,0.56-4.08c-0.1-1.11-3.44-11.69-6.87-12.62c-3.44-0.92-9.3,0.19-9.3,0.19H250.13z M246.32,185.4   c0,0,6.87-9.65,19.41-9.84"/>
	<path class="st7 SIiFGFsj_90" d="M260.52,199.54c0,2.767-2.243,5.01-5.01,5.01c-2.767,0-5.01-2.243-5.01-5.01l0,0c0-2.767,2.243-5.01,5.01-5.01   C258.277,194.53,260.52,196.773,260.52,199.54"/>
	<path class="st13 SIiFGFsj_91" d="M260.52,199.54c0,2.767-2.243,5.01-5.01,5.01c-2.767,0-5.01-2.243-5.01-5.01l0,0   c0-2.767,2.243-5.01,5.01-5.01C258.277,194.53,260.52,196.773,260.52,199.54z"/>
	<path class="st6 SIiFGFsj_92" d="M250.4,198.52l0.04,2.52c0,0,1.28,0.01,1.28-1.38C251.72,198.26,250.54,198.5,250.4,198.52 M252.74,200.77   l0.64-2.3l0.85,2.3 M254.76,198.27l0.97,2.38l0.61-2.5l0.95,2.36l0.5-2.46 M258.84,200.4l0.11-2.44l1.41,2.22l0.08-2.37"/>
	<path class="st14 SIiFGFsj_93" d="M250.4,198.52l0.04,2.52c0,0,1.28,0.01,1.28-1.38C251.72,198.26,250.54,198.5,250.4,198.52L250.4,198.52z    M252.74,200.77l0.64-2.3l0.85,2.3 M254.76,198.27l0.97,2.38l0.61-2.5l0.95,2.36l0.5-2.46 M258.84,200.4l0.11-2.44l1.41,2.22   l0.08-2.37"/>
	<path class="st15 SIiFGFsj_94" d="M250.4,198.52l0.04,2.52c0,0,1.28,0.01,1.28-1.38C251.72,198.26,250.54,198.5,250.4,198.52L250.4,198.52z    M252.74,200.77l0.64-2.3l0.85,2.3 M254.76,198.27l0.97,2.38l0.61-2.5l0.95,2.36l0.5-2.46 M258.84,200.4l0.11-2.44l1.41,2.22   l0.08-2.37"/>
	<path class="st2 SIiFGFsj_95" d="M261.37,154.9c0-1.4-3.01-2.53-6.72-2.53s-6.72,1.13-6.72,2.53v4.46c0,1.4,3,2.53,6.72,2.53   c3.7,0,6.72-1.13,6.72-2.53V154.9z"/>
	<path class="st0 SIiFGFsj_96" d="M261.37,154.9c0-1.4-3.01-2.53-6.72-2.53s-6.72,1.13-6.72,2.53v4.46c0,1.4,3,2.53,6.72,2.53   c3.7,0,6.72-1.13,6.72-2.53V154.9z"/>
	<path class="st2 SIiFGFsj_97" d="M258.33,150.6c0-0.78-1.65-1.4-3.68-1.4c-2.04,0-3.69,0.62-3.69,1.4v2.43c0,0.77,1.65,1.4,3.69,1.4   c2.03,0,3.68-0.63,3.68-1.4v-2.44V150.6z"/>
	<path class="st0 SIiFGFsj_98" d="M258.33,150.6c0-0.78-1.65-1.4-3.68-1.4c-2.04,0-3.69,0.62-3.69,1.4v2.43c0,0.77,1.65,1.4,3.69,1.4   c2.03,0,3.68-0.63,3.68-1.4v-2.44V150.6z M11.65,256.17h353.62v-17.36H11.65V256.17z"/>
	<path class="st9 SIiFGFsj_99" d="M312.65,205.56c0,0,10.5-10.2,12.72-12.25c1.8-1.67,3.41-1.41,3.41-1.41c0.79,0.08,1.28,0.32,1.58,0.6   c0.56,0.53,0.52,1.43-0.02,1.97l-14.82,14.89c0.65,1.95,0.66,6.14-3.84,10.02c-5.04,4.36-13.58,4.73-15.75,2.2   c-1-1.17-1.24-4.27,0.74-5.2"/>
	<path class="st0 SIiFGFsj_100" d="M312.65,205.56c0,0,10.5-10.2,12.72-12.25c1.8-1.67,3.41-1.41,3.41-1.41c0.79,0.08,1.28,0.32,1.58,0.6   c0.56,0.53,0.52,1.43-0.02,1.97l-14.82,14.89c0.65,1.95,0.66,6.14-3.84,10.02c-5.04,4.36-13.58,4.73-15.75,2.2   c-1-1.17-1.24-4.27,0.74-5.2"/>
	<path class="st2 SIiFGFsj_101" d="M313.99,205.95c0.04-1.62-1.43-2.71-4.13-2.71c-4.05,0-9.33,2.45-11.8,5.47   c-0.802,0.888-1.275,2.025-1.34,3.22c-0.02,0.95-0.09,5.43,0.18,6.37c0.35,1.23,1.76,2,4.04,2c4.06,0,9.34-2.44,11.8-5.47   c0.93-1.14,1.09-2.21,1.23-3.08C314.15,210.68,313.97,206.76,313.99,205.95"/>
	<path class="st0 SIiFGFsj_102" d="M313.99,205.95c0.04-1.62-1.43-2.71-4.13-2.71c-4.05,0-9.33,2.45-11.8,5.47   c-0.802,0.888-1.275,2.025-1.34,3.22c-0.02,0.95-0.09,5.43,0.18,6.37c0.35,1.23,1.76,2,4.04,2c4.06,0,9.34-2.44,11.8-5.47   c0.93-1.14,1.09-2.21,1.23-3.08C314.15,210.68,313.97,206.76,313.99,205.95L313.99,205.95z"/>
	<path class="st0 SIiFGFsj_103" d="M300.94,214.18c-4.05,0-5.34-2.45-2.87-5.47c2.46-3.02,7.74-5.47,11.79-5.47c4.05,0,5.34,2.45,2.88,5.47   c-0.35,0.43-0.75,0.84-1.2,1.24c-0.45,0.4-0.96,0.8-1.5,1.16 M308.04,212.29c-1.56,0.8-3.26,1.38-4.9,1.68"/>
	<path class="st3 SIiFGFsj_104" d="M166.64,204.47c0.028-1.535-1.195-2.802-2.73-2.83s-2.802,1.195-2.83,2.73l0,0   c-0.608-0.151-1.25-0.091-1.82,0.17c-0.263-1.513-1.703-2.525-3.216-2.262c-0.959,0.167-1.762,0.824-2.114,1.732   c-0.947-1.201-2.689-1.407-3.89-0.46c-0.92,0.725-1.284,1.95-0.91,3.06c-1.421,0.026-2.592,1.123-2.71,2.54   c-1.462,0.452-2.28,2.003-1.828,3.465s2.003,2.28,3.465,1.828c0.4-0.124,0.767-0.337,1.073-0.623   c0.976,0.921,2.472,1.009,3.55,0.21c0.713,1.354,2.388,1.873,3.742,1.16c0.588-0.31,1.046-0.821,1.288-1.44   c1.016,1.143,2.767,1.246,3.911,0.23c0.581-0.516,0.918-1.253,0.929-2.03c0.12,0,0.24,0.03,0.37,0.03   c1.177,0.969,2.916,0.801,3.885-0.376s0.801-2.916-0.376-3.885c-0.482-0.397-1.085-0.619-1.709-0.629   C165.84,206.73,166.64,205.69,166.64,204.47"/>
	<path class="st0 SIiFGFsj_105" d="M166.64,204.47c0.028-1.535-1.195-2.802-2.73-2.83s-2.802,1.195-2.83,2.73l0,0   c-0.608-0.151-1.25-0.091-1.82,0.17c-0.263-1.513-1.703-2.525-3.216-2.262c-0.959,0.167-1.762,0.824-2.114,1.732   c-0.947-1.201-2.689-1.407-3.89-0.46c-0.92,0.725-1.284,1.95-0.91,3.06c-1.421,0.026-2.592,1.123-2.71,2.54   c-1.462,0.452-2.28,2.003-1.828,3.465s2.003,2.28,3.465,1.828c0.4-0.124,0.767-0.337,1.073-0.623   c0.976,0.921,2.472,1.009,3.55,0.21c0.713,1.354,2.388,1.873,3.742,1.16c0.588-0.31,1.046-0.821,1.288-1.44   c1.016,1.143,2.767,1.246,3.911,0.23c0.581-0.516,0.918-1.253,0.929-2.03c0.12,0,0.24,0.03,0.37,0.03   c1.177,0.969,2.916,0.801,3.885-0.376s0.801-2.916-0.376-3.885c-0.482-0.397-1.085-0.619-1.709-0.629   C165.84,206.73,166.64,205.69,166.64,204.47L166.64,204.47z"/>
	<path class="st3 SIiFGFsj_106" d="M178.5,218.05c1.319-0.786,1.75-2.493,0.964-3.811c-0.445-0.745-1.212-1.241-2.074-1.339   c-0.29-1.513-1.752-2.505-3.265-2.215c-1.302,0.249-2.249,1.38-2.265,2.706c-0.12,0.04-0.23,0.08-0.33,0.14   c-1.327,0.772-1.777,2.474-1.005,3.801c0.772,1.327,2.474,1.777,3.801,1.005c0.311-0.181,0.584-0.421,0.804-0.706   c0.896,0.885,2.274,1.057,3.36,0.42"/>
	<path class="st0 SIiFGFsj_107" d="M178.5,218.05c1.319-0.786,1.75-2.493,0.964-3.811c-0.445-0.745-1.212-1.241-2.074-1.339   c-0.29-1.513-1.752-2.505-3.265-2.215c-1.302,0.249-2.249,1.38-2.265,2.706c-0.12,0.04-0.23,0.08-0.33,0.14   c-1.327,0.772-1.777,2.474-1.005,3.801c0.772,1.327,2.474,1.777,3.801,1.005c0.311-0.181,0.584-0.421,0.804-0.706   c0.896,0.885,2.274,1.057,3.36,0.42L178.5,218.05z M74,137.34l-1.13-1.35c-0.409-0.467-0.365-1.178,0.1-1.59l8.02-7.15   c0.467-0.409,1.178-0.365,1.59,0.1l1.12,1.34L74,137.34L74,137.34z M76.4,146.34l-4.54-5.07c-0.522-0.585-0.471-1.483,0.114-2.005   c0.002-0.002,0.004-0.003,0.006-0.005l13.4-11.94c0.585-0.514,1.475-0.465,2,0.11l4.54,5.08c0.52,0.58,0.47,1.48-0.11,2   l-13.4,11.95C77.82,146.98,76.91,146.93,76.4,146.34z"/>
	<path class="st2 SIiFGFsj_108" d="M158.24,45.95c0.521-0.416,1.174-0.632,1.84-0.61c4.09,0.13,19.12,0.78,22,2.94c2.63,1.96-0.02,3.93-1.27,4.69   c-0.47,0.28-0.9,0.61-1.31,0.98l-6.52,5.99c-0.58,0.53-1.31,0.87-2.1,0.96c-1.29,0.15-3.54,0.16-6.9-0.66   c-4.025-0.943-8.13-1.502-12.26-1.67c0,0-3.9,0.19-3.53-2.32C148.54,53.85,155.78,47.91,158.24,45.95"/>
	<path class="st4 SIiFGFsj_109" d="M182.08,48.28c-1.03-0.78-3.64-1.36-6.75-1.8c-2.62,5.86-6.53,11-12,13.61l0.65,0.15   c3.36,0.82,5.61,0.8,6.9,0.66c0.784-0.088,1.52-0.425,2.1-0.96l6.52-5.99c0.4-0.37,0.84-0.7,1.3-0.98c1.26-0.76,3.91-2.73,1.28-4.7   "/>
	<path class="st0 SIiFGFsj_110" d="M158.24,45.95c0.521-0.416,1.174-0.632,1.84-0.61c4.09,0.13,19.12,0.78,22,2.94c2.63,1.96-0.02,3.93-1.27,4.69   c-0.47,0.28-0.9,0.61-1.31,0.98l-6.52,5.99c-0.58,0.53-1.31,0.87-2.1,0.96c-1.29,0.15-3.54,0.16-6.9-0.66   c-4.025-0.943-8.13-1.502-12.26-1.67c0,0-3.9,0.19-3.53-2.32C148.54,53.85,155.78,47.91,158.24,45.95z"/>
	<g>
		<path class="st3 SIiFGFsj_111" d="M179.66,58.52c0,0-0.83-0.83-2.9-0.88"/>
		<path class="st0 SIiFGFsj_112" d="M179.66,58.52c0,0-0.83-0.83-2.9-0.88"/>
	</g>
	<path class="st3 SIiFGFsj_113" d="M176.32,58.6c0,0-0.18-0.15,0.32-0.52c0.36-0.26,1.12,0,1.04,0.54C177.64,58.82,176.55,58.72,176.32,58.6"/>
	<path class="st0 SIiFGFsj_114" d="M176.32,58.6c0,0-0.18-0.15,0.32-0.52c0.36-0.26,1.12,0,1.04,0.54C177.64,58.82,176.55,58.72,176.32,58.6z    M169.89,74.07c0,0,2.16,0.49,3.22,0.24"/>
</g>
<style data-made-with="vivus-instant">.SIiFGFsj_0{stroke-dasharray:383 385;stroke-dashoffset:384;animation:SIiFGFsj_draw 3000ms linear 0ms forwards;}.SIiFGFsj_1{stroke-dasharray:648 650;stroke-dashoffset:649;animation:SIiFGFsj_draw 3000ms linear 0ms forwards;}.SIiFGFsj_2{stroke-dasharray:579 581;stroke-dashoffset:580;animation:SIiFGFsj_draw 3000ms linear 0ms forwards;}.SIiFGFsj_3{stroke-dasharray:102 104;stroke-dashoffset:103;animation:SIiFGFsj_draw 3000ms linear 0ms forwards;}.SIiFGFsj_4{stroke-dasharray:102 104;stroke-dashoffset:103;animation:SIiFGFsj_draw 3000ms linear 0ms forwards;}.SIiFGFsj_5{stroke-dasharray:372 374;stroke-dashoffset:373;animation:SIiFGFsj_draw 3000ms linear 0ms forwards;}.SIiFGFsj_6{stroke-dasharray:102 104;stroke-dashoffset:103;animation:SIiFGFsj_draw 3000ms linear 0ms forwards;}.SIiFGFsj_7{stroke-dasharray:102 104;stroke-dashoffset:103;animation:SIiFGFsj_draw 3000ms linear 0ms forwards;}.SIiFGFsj_8{stroke-dasharray:234 236;stroke-dashoffset:235;animation:SIiFGFsj_draw 3000ms linear 0ms forwards;}.SIiFGFsj_9{stroke-dasharray:234 236;stroke-dashoffset:235;animation:SIiFGFsj_draw 3000ms linear 0ms forwards;}.SIiFGFsj_10{stroke-dasharray:31 33;stroke-dashoffset:32;animation:SIiFGFsj_draw 3000ms linear 0ms forwards;}.SIiFGFsj_11{stroke-dasharray:50 52;stroke-dashoffset:51;animation:SIiFGFsj_draw 3000ms linear 0ms forwards;}.SIiFGFsj_12{stroke-dasharray:52 54;stroke-dashoffset:53;animation:SIiFGFsj_draw 3000ms linear 0ms forwards;}.SIiFGFsj_13{stroke-dasharray:17 19;stroke-dashoffset:18;animation:SIiFGFsj_draw 3000ms linear 0ms forwards;}.SIiFGFsj_14{stroke-dasharray:257 259;stroke-dashoffset:258;animation:SIiFGFsj_draw 3000ms linear 0ms forwards;}.SIiFGFsj_15{stroke-dasharray:257 259;stroke-dashoffset:258;animation:SIiFGFsj_draw 3000ms linear 0ms forwards;}.SIiFGFsj_16{stroke-dasharray:149 151;stroke-dashoffset:150;animation:SIiFGFsj_draw 3000ms linear 0ms forwards;}.SIiFGFsj_17{stroke-dasharray:136 138;stroke-dashoffset:137;animation:SIiFGFsj_draw 3000ms linear 0ms forwards;}.SIiFGFsj_18{stroke-dasharray:4 6;stroke-dashoffset:5;animation:SIiFGFsj_draw 3000ms linear 0ms forwards;}.SIiFGFsj_19{stroke-dasharray:153 155;stroke-dashoffset:154;animation:SIiFGFsj_draw 3000ms linear 0ms forwards;}.SIiFGFsj_20{stroke-dasharray:149 151;stroke-dashoffset:150;animation:SIiFGFsj_draw 3000ms linear 0ms forwards;}.SIiFGFsj_21{stroke-dasharray:305 307;stroke-dashoffset:306;animation:SIiFGFsj_draw 3000ms linear 0ms forwards;}.SIiFGFsj_22{stroke-dasharray:305 307;stroke-dashoffset:306;animation:SIiFGFsj_draw 3000ms linear 0ms forwards;}.SIiFGFsj_23{stroke-dasharray:182 184;stroke-dashoffset:183;animation:SIiFGFsj_draw 3000ms linear 0ms forwards;}.SIiFGFsj_24{stroke-dasharray:148 150;stroke-dashoffset:149;animation:SIiFGFsj_draw 3000ms linear 0ms forwards;}.SIiFGFsj_25{stroke-dasharray:148 150;stroke-dashoffset:149;animation:SIiFGFsj_draw 3000ms linear 0ms forwards;}.SIiFGFsj_26{stroke-dasharray:27 29;stroke-dashoffset:28;animation:SIiFGFsj_draw 3000ms linear 0ms forwards;}.SIiFGFsj_27{stroke-dasharray:189 191;stroke-dashoffset:190;animation:SIiFGFsj_draw 3000ms linear 0ms forwards;}.SIiFGFsj_28{stroke-dasharray:189 191;stroke-dashoffset:190;animation:SIiFGFsj_draw 3000ms linear 0ms forwards;}.SIiFGFsj_29{stroke-dasharray:60 62;stroke-dashoffset:61;animation:SIiFGFsj_draw 3000ms linear 0ms forwards;}.SIiFGFsj_30{stroke-dasharray:36 38;stroke-dashoffset:37;animation:SIiFGFsj_draw 3000ms linear 0ms forwards;}.SIiFGFsj_31{stroke-dasharray:36 38;stroke-dashoffset:37;animation:SIiFGFsj_draw 3000ms linear 0ms forwards;}.SIiFGFsj_32{stroke-dasharray:27 29;stroke-dashoffset:28;animation:SIiFGFsj_draw 3000ms linear 0ms forwards;}.SIiFGFsj_33{stroke-dasharray:103 105;stroke-dashoffset:104;animation:SIiFGFsj_draw 3000ms linear 0ms forwards;}.SIiFGFsj_34{stroke-dasharray:75 77;stroke-dashoffset:76;animation:SIiFGFsj_draw 3000ms linear 0ms forwards;}.SIiFGFsj_35{stroke-dasharray:109 111;stroke-dashoffset:110;animation:SIiFGFsj_draw 3000ms linear 0ms forwards;}.SIiFGFsj_36{stroke-dasharray:91 93;stroke-dashoffset:92;animation:SIiFGFsj_draw 3000ms linear 0ms forwards;}.SIiFGFsj_37{stroke-dasharray:817 819;stroke-dashoffset:818;animation:SIiFGFsj_draw 3000ms linear 0ms forwards;}.SIiFGFsj_38{stroke-dasharray:437 439;stroke-dashoffset:438;animation:SIiFGFsj_draw 3000ms linear 0ms forwards;}.SIiFGFsj_39{stroke-dasharray:437 439;stroke-dashoffset:438;animation:SIiFGFsj_draw 3000ms linear 0ms forwards;}.SIiFGFsj_40{stroke-dasharray:410 412;stroke-dashoffset:411;animation:SIiFGFsj_draw 3000ms linear 0ms forwards;}.SIiFGFsj_41{stroke-dasharray:410 412;stroke-dashoffset:411;animation:SIiFGFsj_draw 3000ms linear 0ms forwards;}.SIiFGFsj_42{stroke-dasharray:317 319;stroke-dashoffset:318;animation:SIiFGFsj_draw 3000ms linear 0ms forwards;}.SIiFGFsj_43{stroke-dasharray:83 85;stroke-dashoffset:84;animation:SIiFGFsj_draw 3000ms linear 0ms forwards;}.SIiFGFsj_44{stroke-dasharray:83 85;stroke-dashoffset:84;animation:SIiFGFsj_draw 3000ms linear 0ms forwards;}.SIiFGFsj_45{stroke-dasharray:83 85;stroke-dashoffset:84;animation:SIiFGFsj_draw 3000ms linear 0ms forwards;}.SIiFGFsj_46{stroke-dasharray:33 35;stroke-dashoffset:34;animation:SIiFGFsj_draw 3000ms linear 0ms forwards;}.SIiFGFsj_47{stroke-dasharray:33 35;stroke-dashoffset:34;animation:SIiFGFsj_draw 3000ms linear 0ms forwards;}.SIiFGFsj_48{stroke-dasharray:85 87;stroke-dashoffset:86;animation:SIiFGFsj_draw 3000ms linear 0ms forwards;}.SIiFGFsj_49{stroke-dasharray:85 87;stroke-dashoffset:86;animation:SIiFGFsj_draw 3000ms linear 0ms forwards;}.SIiFGFsj_50{stroke-dasharray:72 74;stroke-dashoffset:73;animation:SIiFGFsj_draw 3000ms linear 0ms forwards;}.SIiFGFsj_51{stroke-dasharray:72 74;stroke-dashoffset:73;animation:SIiFGFsj_draw 3000ms linear 0ms forwards;}.SIiFGFsj_52{stroke-dasharray:447 449;stroke-dashoffset:448;animation:SIiFGFsj_draw 3000ms linear 0ms forwards;}.SIiFGFsj_53{stroke-dasharray:447 449;stroke-dashoffset:448;animation:SIiFGFsj_draw 3000ms linear 0ms forwards;}.SIiFGFsj_54{stroke-dasharray:410 412;stroke-dashoffset:411;animation:SIiFGFsj_draw 3000ms linear 0ms forwards;}.SIiFGFsj_55{stroke-dasharray:101 103;stroke-dashoffset:102;animation:SIiFGFsj_draw 3000ms linear 0ms forwards;}.SIiFGFsj_56{stroke-dasharray:101 103;stroke-dashoffset:102;animation:SIiFGFsj_draw 3000ms linear 0ms forwards;}.SIiFGFsj_57{stroke-dasharray:84 86;stroke-dashoffset:85;animation:SIiFGFsj_draw 3000ms linear 0ms forwards;}.SIiFGFsj_58{stroke-dasharray:108 110;stroke-dashoffset:109;animation:SIiFGFsj_draw 3000ms linear 0ms forwards;}.SIiFGFsj_59{stroke-dasharray:159 161;stroke-dashoffset:160;animation:SIiFGFsj_draw 3000ms linear 0ms forwards;}.SIiFGFsj_60{stroke-dasharray:159 161;stroke-dashoffset:160;animation:SIiFGFsj_draw 3000ms linear 0ms forwards;}.SIiFGFsj_61{stroke-dasharray:159 161;stroke-dashoffset:160;animation:SIiFGFsj_draw 3000ms linear 0ms forwards;}.SIiFGFsj_62{stroke-dasharray:159 161;stroke-dashoffset:160;animation:SIiFGFsj_draw 3000ms linear 0ms forwards;}.SIiFGFsj_63{stroke-dasharray:9 11;stroke-dashoffset:10;animation:SIiFGFsj_draw 3000ms linear 0ms forwards;}.SIiFGFsj_64{stroke-dasharray:24 26;stroke-dashoffset:25;animation:SIiFGFsj_draw 3000ms linear 0ms forwards;}.SIiFGFsj_65{stroke-dasharray:235 237;stroke-dashoffset:236;animation:SIiFGFsj_draw 3000ms linear 0ms forwards;}.SIiFGFsj_66{stroke-dasharray:235 237;stroke-dashoffset:236;animation:SIiFGFsj_draw 3000ms linear 0ms forwards;}.SIiFGFsj_67{stroke-dasharray:31 33;stroke-dashoffset:32;animation:SIiFGFsj_draw 3000ms linear 0ms forwards;}.SIiFGFsj_68{stroke-dasharray:31 33;stroke-dashoffset:32;animation:SIiFGFsj_draw 3000ms linear 0ms forwards;}.SIiFGFsj_69{stroke-dasharray:209 211;stroke-dashoffset:210;animation:SIiFGFsj_draw 3000ms linear 0ms forwards;}.SIiFGFsj_70{stroke-dasharray:194 196;stroke-dashoffset:195;animation:SIiFGFsj_draw 3000ms linear 0ms forwards;}.SIiFGFsj_71{stroke-dasharray:209 211;stroke-dashoffset:210;animation:SIiFGFsj_draw 3000ms linear 0ms forwards;}.SIiFGFsj_72{stroke-dasharray:154 156;stroke-dashoffset:155;animation:SIiFGFsj_draw 3000ms linear 0ms forwards;}.SIiFGFsj_73{stroke-dasharray:154 156;stroke-dashoffset:155;animation:SIiFGFsj_draw 3000ms linear 0ms forwards;}.SIiFGFsj_74{stroke-dasharray:134 136;stroke-dashoffset:135;animation:SIiFGFsj_draw 3000ms linear 0ms forwards;}.SIiFGFsj_75{stroke-dasharray:6 8;stroke-dashoffset:7;animation:SIiFGFsj_draw 3000ms linear 0ms forwards;}.SIiFGFsj_76{stroke-dasharray:6 8;stroke-dashoffset:7;animation:SIiFGFsj_draw 3000ms linear 0ms forwards;}.SIiFGFsj_77{stroke-dasharray:6 8;stroke-dashoffset:7;animation:SIiFGFsj_draw 3000ms linear 0ms forwards;}.SIiFGFsj_78{stroke-dasharray:159 161;stroke-dashoffset:160;animation:SIiFGFsj_draw 3000ms linear 0ms forwards;}.SIiFGFsj_79{stroke-dasharray:89 91;stroke-dashoffset:90;animation:SIiFGFsj_draw 3000ms linear 0ms forwards;}.SIiFGFsj_80{stroke-dasharray:116 118;stroke-dashoffset:117;animation:SIiFGFsj_draw 3000ms linear 0ms forwards;}.SIiFGFsj_81{stroke-dasharray:116 118;stroke-dashoffset:117;animation:SIiFGFsj_draw 3000ms linear 0ms forwards;}.SIiFGFsj_82{stroke-dasharray:76 78;stroke-dashoffset:77;animation:SIiFGFsj_draw 3000ms linear 0ms forwards;}.SIiFGFsj_83{stroke-dasharray:54 56;stroke-dashoffset:55;animation:SIiFGFsj_draw 3000ms linear 0ms forwards;}.SIiFGFsj_84{stroke-dasharray:74 76;stroke-dashoffset:75;animation:SIiFGFsj_draw 3000ms linear 0ms forwards;}.SIiFGFsj_85{stroke-dasharray:160 162;stroke-dashoffset:161;animation:SIiFGFsj_draw 3000ms linear 0ms forwards;}.SIiFGFsj_86{stroke-dasharray:160 162;stroke-dashoffset:161;animation:SIiFGFsj_draw 3000ms linear 0ms forwards;}.SIiFGFsj_87{stroke-dasharray:146 148;stroke-dashoffset:147;animation:SIiFGFsj_draw 3000ms linear 0ms forwards;}.SIiFGFsj_88{stroke-dasharray:129 131;stroke-dashoffset:130;animation:SIiFGFsj_draw 3000ms linear 0ms forwards;}.SIiFGFsj_89{stroke-dasharray:183 185;stroke-dashoffset:184;animation:SIiFGFsj_draw 3000ms linear 0ms forwards;}.SIiFGFsj_90{stroke-dasharray:32 34;stroke-dashoffset:33;animation:SIiFGFsj_draw 3000ms linear 0ms forwards;}.SIiFGFsj_91{stroke-dasharray:32 34;stroke-dashoffset:33;animation:SIiFGFsj_draw 3000ms linear 0ms forwards;}.SIiFGFsj_92{stroke-dasharray:30 32;stroke-dashoffset:31;animation:SIiFGFsj_draw 3000ms linear 0ms forwards;}.SIiFGFsj_93{stroke-dasharray:30 32;stroke-dashoffset:31;animation:SIiFGFsj_draw 3000ms linear 0ms forwards;}.SIiFGFsj_94{stroke-dasharray:30 32;stroke-dashoffset:31;animation:SIiFGFsj_draw 3000ms linear 0ms forwards;}.SIiFGFsj_95{stroke-dasharray:40 42;stroke-dashoffset:41;animation:SIiFGFsj_draw 3000ms linear 0ms forwards;}.SIiFGFsj_96{stroke-dasharray:40 42;stroke-dashoffset:41;animation:SIiFGFsj_draw 3000ms linear 0ms forwards;}.SIiFGFsj_97{stroke-dasharray:22 24;stroke-dashoffset:23;animation:SIiFGFsj_draw 3000ms linear 0ms forwards;}.SIiFGFsj_98{stroke-dasharray:764 766;stroke-dashoffset:765;animation:SIiFGFsj_draw 3000ms linear 0ms forwards;}.SIiFGFsj_99{stroke-dasharray:81 83;stroke-dashoffset:82;animation:SIiFGFsj_draw 3000ms linear 0ms forwards;}.SIiFGFsj_100{stroke-dasharray:81 83;stroke-dashoffset:82;animation:SIiFGFsj_draw 3000ms linear 0ms forwards;}.SIiFGFsj_101{stroke-dasharray:57 59;stroke-dashoffset:58;animation:SIiFGFsj_draw 3000ms linear 0ms forwards;}.SIiFGFsj_102{stroke-dasharray:57 59;stroke-dashoffset:58;animation:SIiFGFsj_draw 3000ms linear 0ms forwards;}.SIiFGFsj_103{stroke-dasharray:40 42;stroke-dashoffset:41;animation:SIiFGFsj_draw 3000ms linear 0ms forwards;}.SIiFGFsj_104{stroke-dasharray:71 73;stroke-dashoffset:72;animation:SIiFGFsj_draw 3000ms linear 0ms forwards;}.SIiFGFsj_105{stroke-dasharray:71 73;stroke-dashoffset:72;animation:SIiFGFsj_draw 3000ms linear 0ms forwards;}.SIiFGFsj_106{stroke-dasharray:29 31;stroke-dashoffset:30;animation:SIiFGFsj_draw 3000ms linear 0ms forwards;}.SIiFGFsj_107{stroke-dasharray:119 121;stroke-dashoffset:120;animation:SIiFGFsj_draw 3000ms linear 0ms forwards;}.SIiFGFsj_108{stroke-dasharray:83 85;stroke-dashoffset:84;animation:SIiFGFsj_draw 3000ms linear 0ms forwards;}.SIiFGFsj_109{stroke-dasharray:53 55;stroke-dashoffset:54;animation:SIiFGFsj_draw 3000ms linear 0ms forwards;}.SIiFGFsj_110{stroke-dasharray:83 85;stroke-dashoffset:84;animation:SIiFGFsj_draw 3000ms linear 0ms forwards;}.SIiFGFsj_111{stroke-dasharray:4 6;stroke-dashoffset:5;animation:SIiFGFsj_draw 3000ms linear 0ms forwards;}.SIiFGFsj_112{stroke-dasharray:4 6;stroke-dashoffset:5;animation:SIiFGFsj_draw 3000ms linear 0ms forwards;}.SIiFGFsj_113{stroke-dasharray:4 6;stroke-dashoffset:5;animation:SIiFGFsj_draw 3000ms linear 0ms forwards;}.SIiFGFsj_114{stroke-dasharray:7 9;stroke-dashoffset:8;animation:SIiFGFsj_draw 3000ms linear 0ms forwards;}@keyframes SIiFGFsj_draw{100%{stroke-dashoffset:0;}}@keyframes SIiFGFsj_fade{0%{stroke-opacity:1;}94.44444444444444%{stroke-opacity:1;}100%{stroke-opacity:0;}}</style></svg>