<svg xmlns="http://www.w3.org/2000/svg" xmlns:xlink="http://www.w3.org/1999/xlink" version="1.1" id="Layer_1" x="0px" y="0px" viewBox="0 0 118.7 123" style="" xml:space="preserve">
<style type="text/css">
	.st0{fill:none;stroke:#1B449C;stroke-width:2;stroke-linecap:round;stroke-linejoin:round;stroke-miterlimit:10;}
	.st1{fill:none;stroke:#00AE4B;stroke-width:2;stroke-linecap:round;stroke-linejoin:round;stroke-miterlimit:10;}
	.st2{fill:none;stroke:#00A1E0;stroke-width:2;stroke-linecap:round;stroke-linejoin:round;stroke-miterlimit:10;}
	.st3{fill:none;stroke:#00A1E0;stroke-width:2;stroke-miterlimit:10;}
	.st4{fill:#00E93B;stroke:#00A1E0;stroke-width:2;stroke-miterlimit:10;}
	.st5{fill:#00E93B;}
	.st6{fill:none;stroke:#EC7625;stroke-width:2.1;stroke-linejoin:round;stroke-miterlimit:10;}
	.st7{fill:none;stroke:#00A1E0;stroke-width:2;stroke-linecap:round;stroke-linejoin:round;}
	.st8{fill:none;stroke:#003DA7;stroke-width:2;stroke-linecap:round;stroke-linejoin:round;}
	.st9{fill:none;stroke:#00AF43;stroke-width:2;stroke-linecap:round;stroke-linejoin:round;}
	.st10{fill:none;stroke:#EF3A43;stroke-width:2;stroke-linecap:round;stroke-linejoin:round;stroke-miterlimit:10;}
	.st11{fill:none;stroke:#EC7625;stroke-width:2;stroke-linecap:round;stroke-linejoin:round;stroke-miterlimit:10;}
	.st12{fill:none;stroke:#1B449C;stroke-width:2;stroke-linecap:round;stroke-miterlimit:10;}
	.st13{fill:none;stroke:#EE7624;stroke-width:2;stroke-linecap:square;stroke-linejoin:round;}
	.st14{fill:none;stroke:#EE7624;stroke-width:2;stroke-linecap:round;stroke-linejoin:round;}
	.st15{fill:none;stroke:#F63440;stroke-width:2;stroke-linecap:round;stroke-linejoin:round;}
	.st16{fill:none;}
</style>
<path class="st16 XVPCAjGS_0" d="M29.1,106.5c0.9-0.3,1.9-0.6,2.8-0.9C31,105.8,30.1,106.1,29.1,106.5z"/>
<path class="st16 XVPCAjGS_1" d="M23.8,109c1.3-0.8,2.6-1.4,4-2C26.4,107.6,25.1,108.2,23.8,109z"/>
<path class="st16 XVPCAjGS_2" d="M17.9,113.6c1.1-1.1,2.2-2,3.4-2.9C20.1,111.5,19,112.5,17.9,113.6z"/>
<path class="st16 XVPCAjGS_3" d="M32,105.6c1-0.2,1.9-0.4,2.9-0.6C33.9,105.2,32.9,105.4,32,105.6z"/>
<path class="st2 XVPCAjGS_4" d="M78.7,83.4h1.3c4.2,0,7.6-3.4,7.6-7.7V60.5l4.3-2.4c1-0.5,1.5-1.4,1.5-2.5v-20c0-4.2-3.4-7.7-7.6-7.7h-9.2"/>
<path class="st2 XVPCAjGS_5" d="M78.2,21.3c5.4,0,9.7-4.3,9.7-9.7v-0.4c0-5.4-4.3-9.7-9.7-9.7c-5.4,0-9.7,4.3-9.7,9.7v0.4  C68.5,17,72.9,21.3,78.2,21.3z"/>
<path class="st0 XVPCAjGS_6" d="M50.6,20.9c5.4,0,9.7-4.3,9.7-9.7v-0.4C60.3,5.3,56,1,50.6,1c-5.4,0-9.7,4.3-9.7,9.7v0.4  C40.9,16.5,45.2,20.9,50.6,20.9z"/>
<path class="st0 XVPCAjGS_7" d="M62.1,63.8c0-0.7,0.4-1.3,1-1.7l0.9-0.5c2.5-1.2,4-3.8,4-6.6V33.5c0-4.2-3.4-7.7-7.7-7.7H40.9  c-4.2,0-7.7,3.5-7.7,7.7V55c0,2.8,1.5,5.4,4,6.7l0.9,0.5c0.6,0.4,1,1,1,1.7v13h23V63.8z"/>
<path class="st1 XVPCAjGS_8" d="M24.6,27.9h-9.2c-4.2,0-7.6,3.4-7.6,7.7v17.2c0,2.8,1.5,5.4,4,6.7l0.9,0.5c0.6,0.4,1,1,1,1.7v14.1  c0,3,1.7,5.6,4.2,6.8"/>
<path class="st1 XVPCAjGS_9" d="M22.9,21.3c5.4,0,9.7-4.3,9.7-9.7v-0.4c0-5.4-4.3-9.7-9.7-9.7c-5.4,0-9.7,4.3-9.7,9.7v0.4  C13.2,17,17.5,21.3,22.9,21.3z"/>
<g>
	<g id="Copy_8_" transform="translate(0.000000, 95.000000)">
		<g id="Goals_13_" transform="translate(60.000000, 200.000000)">
			<g id="Brand_7_" transform="translate(150.000000, 1.000000)">
				<g id="Icon_4_" transform="translate(37.000000, 0.000000)">
					<path id="Stroke-13_5_" class="st14 XVPCAjGS_10" d="M-168.2-209.1h7.2l22-24.4c2.3-2.3,5.9-2.3,8.2,0c2.3,2.3,2.3,5.9,0,8.2l-26.3,29.2       c-2.8,3.1-6.7,4.8-10.8,4.8h-39.6c-8,0-15.7,3.2-21.4,8.9l-8.4,8.4"/>
					<path id="Stroke-11_6_" class="st14 XVPCAjGS_11" d="M-246-197.2l13-13c5.7-5.7,13.4-8.9,21.4-8.9h35.7c4.2,0,7.6,3.4,7.6,7.6       c0,4.2-3.4,7.6-7.6,7.6h-20"/>
				</g>
			</g>
		</g>
	</g>
</g>
<style data-made-with="vivus-instant">.XVPCAjGS_0{stroke-dasharray:6 8;stroke-dashoffset:7;animation:XVPCAjGS_draw 27ms linear 0ms forwards;}.XVPCAjGS_1{stroke-dasharray:9 11;stroke-dashoffset:10;animation:XVPCAjGS_draw 39ms linear 27ms forwards;}.XVPCAjGS_2{stroke-dasharray:9 11;stroke-dashoffset:10;animation:XVPCAjGS_draw 39ms linear 66ms forwards;}.XVPCAjGS_3{stroke-dasharray:6 8;stroke-dashoffset:7;animation:XVPCAjGS_draw 27ms linear 105ms forwards;}.XVPCAjGS_4{stroke-dasharray:78 80;stroke-dashoffset:79;animation:XVPCAjGS_draw 308ms linear 132ms forwards;}.XVPCAjGS_5{stroke-dasharray:62 64;stroke-dashoffset:63;animation:XVPCAjGS_draw 245ms linear 440ms forwards;}.XVPCAjGS_6{stroke-dasharray:62 64;stroke-dashoffset:63;animation:XVPCAjGS_draw 245ms linear 686ms forwards;}.XVPCAjGS_7{stroke-dasharray:159 161;stroke-dashoffset:160;animation:XVPCAjGS_draw 624ms linear 932ms forwards;}.XVPCAjGS_8{stroke-dasharray:73 75;stroke-dashoffset:74;animation:XVPCAjGS_draw 288ms linear 1556ms forwards;}.XVPCAjGS_9{stroke-dasharray:62 64;stroke-dashoffset:63;animation:XVPCAjGS_draw 245ms linear 1845ms forwards;}.XVPCAjGS_10{stroke-dasharray:186 188;stroke-dashoffset:187;animation:XVPCAjGS_draw 729ms linear 2090ms forwards;}.XVPCAjGS_11{stroke-dasharray:122 124;stroke-dashoffset:123;animation:XVPCAjGS_draw 479ms linear 2820ms forwards;}@keyframes XVPCAjGS_draw{100%{stroke-dashoffset:0;}}@keyframes XVPCAjGS_fade{0%{stroke-opacity:1;}94.66666666666667%{stroke-opacity:1;}100%{stroke-opacity:0;}}</style></svg>