<svg xmlns="http://www.w3.org/2000/svg" xmlns:xlink="http://www.w3.org/1999/xlink" version="1.1" id="Layer_1" x="0px" y="0px" viewBox="0 0 129.6 114.7" style="" xml:space="preserve">
<style type="text/css">
	.st0{fill:none;stroke:#1B449C;stroke-width:2;stroke-linecap:round;stroke-linejoin:round;stroke-miterlimit:10;}
	.st1{fill:none;stroke:#00AE4B;stroke-width:2;stroke-linecap:round;stroke-linejoin:round;stroke-miterlimit:10;}
	.st2{fill:none;stroke:#00A1E0;stroke-width:2;stroke-linecap:round;stroke-linejoin:round;stroke-miterlimit:10;}
	.st3{fill:none;stroke:#00A1E0;stroke-width:2;stroke-miterlimit:10;}
	.st4{fill:#00E93B;stroke:#00A1E0;stroke-width:2;stroke-miterlimit:10;}
	.st5{fill:#00E93B;}
	.st6{fill:none;stroke:#EC7625;stroke-width:2.1;stroke-linejoin:round;stroke-miterlimit:10;}
	.st7{fill:none;stroke:#00A1E0;stroke-width:2;stroke-linecap:round;stroke-linejoin:round;}
	.st8{fill:none;stroke:#003DA7;stroke-width:2;stroke-linecap:round;stroke-linejoin:round;}
	.st9{fill:none;stroke:#00AF43;stroke-width:2;stroke-linecap:round;stroke-linejoin:round;}
	.st10{fill:none;stroke:#EF3A43;stroke-width:2;stroke-linecap:round;stroke-linejoin:round;stroke-miterlimit:10;}
	.st11{fill:none;stroke:#EC7625;stroke-width:2;stroke-linecap:round;stroke-linejoin:round;stroke-miterlimit:10;}
	.st12{fill:none;stroke:#1B449C;stroke-width:2;stroke-linecap:round;stroke-miterlimit:10;}
	.st13{fill:none;stroke:#EE7624;stroke-width:2;stroke-linecap:square;stroke-linejoin:round;}
	.st14{fill:none;stroke:#EE7624;stroke-width:2;stroke-linecap:round;stroke-linejoin:round;}
	.st15{fill:none;stroke:#F63440;stroke-width:2;stroke-linecap:round;stroke-linejoin:round;}
	.st16{fill:none;}
</style>
<g>
	<path class="st12 jaMOVtNp_0" d="M116.5,39.5c0.2,0.2,0,52.8,0,62.1s-2.1,12.1-9.7,12.1s-76.1,0-83.7,0s-9.7-3-9.7-12.3s0-62.1,0-62.1"/>
	<path class="st12 jaMOVtNp_1" d="M128.6,48.7c0,0-45.4-35.8-54.2-42.6S63.7-0.7,55,6.1S0.6,48.7,0.6,48.7"/>
</g>
<g>
	<path class="st13 jaMOVtNp_2" width="43.1" height="40.9" d="M43 62.5 L86.1 62.5 L86.1 103.4 L43 103.4 Z"/>
	<path id="Stroke-7_11_" class="st13 jaMOVtNp_3" d="M64.6,63.9v39.4"/>
	<path id="Stroke-8_7_" class="st14 jaMOVtNp_4" d="M86.1,84H43.1"/>
	<path id="Stroke-1_25_" class="st15 jaMOVtNp_5" d="M64.4,56.1h-9.1c-3.6,0-6.6-2.9-6.6-6.6s2.9-6.6,6.6-6.6C60.8,43,63.4,50.7,64.4,56.1z"/>
	<path id="Stroke-3_15_" class="st15 jaMOVtNp_6" d="M64.8,56.1h9.1c3.6,0,6.6-2.9,6.6-6.6S77.5,43,73.8,43C68.3,43,65.7,50.7,64.8,56.1z"/>
</g>
<style data-made-with="vivus-instant">.jaMOVtNp_0{stroke-dasharray:245 247;stroke-dashoffset:246;animation:jaMOVtNp_draw 1068ms linear 0ms forwards;}.jaMOVtNp_1{stroke-dasharray:161 163;stroke-dashoffset:162;animation:jaMOVtNp_draw 703ms linear 1068ms forwards;}.jaMOVtNp_2{stroke-dasharray:168 170;stroke-dashoffset:169;animation:jaMOVtNp_draw 733ms linear 1771ms forwards;}.jaMOVtNp_3{stroke-dasharray:40 42;stroke-dashoffset:41;animation:jaMOVtNp_draw 178ms linear 2505ms forwards;}.jaMOVtNp_4{stroke-dasharray:43 45;stroke-dashoffset:44;animation:jaMOVtNp_draw 191ms linear 2683ms forwards;}.jaMOVtNp_5{stroke-dasharray:48 50;stroke-dashoffset:49;animation:jaMOVtNp_draw 212ms linear 2874ms forwards;}.jaMOVtNp_6{stroke-dasharray:48 50;stroke-dashoffset:49;animation:jaMOVtNp_draw 212ms linear 3087ms forwards;}@keyframes jaMOVtNp_draw{100%{stroke-dashoffset:0;}}@keyframes jaMOVtNp_fade{0%{stroke-opacity:1;}94.66666666666667%{stroke-opacity:1;}100%{stroke-opacity:0;}}</style></svg>