<svg xmlns="http://www.w3.org/2000/svg" xmlns:xlink="http://www.w3.org/1999/xlink" version="1.1" id="Layer_1" x="0px" y="0px" viewBox="0 0 119.9 123" style="" xml:space="preserve">
<style type="text/css">
	.st0{fill:none;stroke:#1B449C;stroke-width:2;stroke-linecap:round;stroke-linejoin:round;stroke-miterlimit:10;}
	.st1{fill:none;stroke:#00AE4B;stroke-width:2;stroke-linecap:round;stroke-linejoin:round;stroke-miterlimit:10;}
	.st2{fill:none;stroke:#00A1E0;stroke-width:2;stroke-linecap:round;stroke-linejoin:round;stroke-miterlimit:10;}
	.st3{fill:none;stroke:#00A1E0;stroke-width:2;stroke-miterlimit:10;}
	.st4{fill:#00E93B;stroke:#00A1E0;stroke-width:2;stroke-miterlimit:10;}
	.st5{fill:#00E93B;}
	.st6{fill:none;stroke:#EC7625;stroke-width:2.1;stroke-linejoin:round;stroke-miterlimit:10;}
	.st7{fill:none;stroke:#00A1E0;stroke-width:2;stroke-linecap:round;stroke-linejoin:round;}
	.st8{fill:none;stroke:#003DA7;stroke-width:2;stroke-linecap:round;stroke-linejoin:round;}
	.st9{fill:none;stroke:#00AF43;stroke-width:2;stroke-linecap:round;stroke-linejoin:round;}
	.st10{fill:none;stroke:#EF3A43;stroke-width:2;stroke-linecap:round;stroke-linejoin:round;stroke-miterlimit:10;}
	.st11{fill:none;stroke:#EC7625;stroke-width:2;stroke-linecap:round;stroke-linejoin:round;stroke-miterlimit:10;}
	.st12{fill:none;stroke:#1B449C;stroke-width:2;stroke-linecap:round;stroke-miterlimit:10;}
	.st13{fill:none;stroke:#EE7624;stroke-width:2;stroke-linecap:square;stroke-linejoin:round;}
	.st14{fill:none;stroke:#EE7624;stroke-width:2;stroke-linecap:round;stroke-linejoin:round;}
	.st15{fill:none;stroke:#F63440;stroke-width:2;stroke-linecap:round;stroke-linejoin:round;}
	.st16{fill:none;}
</style>
<g>
	<g id="Secondary-_x26_-Tertiary-Pages_14_">
		<g id="_x35__x5F_Sustainability-Desktop_5_" transform="translate(-910.000000, -1170.000000)">
			<g id="Goals_10_" transform="translate(210.000000, 916.000000)">
				<g id="Examples_5_" transform="translate(0.000000, 256.000000)">
					<g id="Group-11_2_" transform="translate(660.000000, 0.000000)">
						<g id="Page-1_12_" transform="translate(42.000000, 0.000000)">
							<path id="Stroke-1_21_" class="st7 dwzbNElr_0" d="M87,112.5h11.3c5.8,0,10.5-4.7,10.5-10.6v-21l5.9-3.3c1.3-0.7,2.1-2,2.1-3.4V46.6         c0-5.8-4.7-10.6-10.5-10.6H93.7 M109.3,13.6v-0.6c0-7.4-6-13.4-13.3-13.4c-7.4,0-13.3,6-13.3,13.4v0.6C82.6,21,88.6,27,96,27         C103.4,27,109.3,21,109.3,13.6z"/>
							<path id="Stroke-3_16_" class="st8 dwzbNElr_1" d="M63.2,120c5.8,0,10.5-4.8,10.5-10.6v-24c0-0.9,0.5-1.8,1.3-2.4l1.2-0.7         c3.4-1.7,5.5-5.3,5.5-9.1V43.7c0-5.8-4.7-10.6-10.5-10.6H44.6c-5.8,0-10.5,4.8-10.5,10.6v29.6c0,3.8,2.1,7.4,5.5,9.2l1.2,0.7         c0.8,0.5,1.3,1.3,1.3,2.4v23.9c0,5.8,4.7,10.6,10.5,10.6H63.2z M57.9,26.3c7.4,0,13.4-6,13.4-13.4v-0.6C71.3,5,65.3-1,57.9-1         c-7.4,0-13.4,6-13.4,13.4V13C44.6,20.4,50.6,26.3,57.9,26.3z"/>
							<path id="Stroke-5_15_" class="st9 dwzbNElr_2" d="M22.1,36.1H9.5C3.7,36.1-1,40.8-1,46.6v23.6c0,3.8,2.1,7.4,5.5,9.2l1.2,0.7         C6.5,80.7,7,81.5,7,82.5v19.4c0,5.8,4.7,10.6,10.5,10.6h11.3 M33.1,13.6v-0.6c0-7.4-6-13.4-13.3-13.4         c-7.4,0-13.3,6-13.3,13.4v0.6c0,7.4,6,13.4,13.3,13.4C27.1,27,33.1,21,33.1,13.6z"/>
						</g>
					</g>
				</g>
			</g>
		</g>
	</g>
	<path class="st10 dwzbNElr_3" d="M59.9,72.5L48.2,60.7c-2.3-2.3-2.3-6.1,0-8.4c2.3-2.3,6.1-2.3,8.4,0l3.3,3.3l3.3-3.3c2.3-2.3,6.1-2.3,8.4,0   c2.3,2.3,2.3,6.1,0,8.4L59.9,72.5z"/>
</g>
<style data-made-with="vivus-instant">.dwzbNElr_0{stroke-dasharray:202 204;stroke-dashoffset:203;animation:dwzbNElr_draw 822ms linear 0ms forwards;}.dwzbNElr_1{stroke-dasharray:327 329;stroke-dashoffset:328;animation:dwzbNElr_draw 1329ms linear 822ms forwards;}.dwzbNElr_2{stroke-dasharray:201 203;stroke-dashoffset:202;animation:dwzbNElr_draw 818ms linear 2152ms forwards;}.dwzbNElr_3{stroke-dasharray:80 82;stroke-dashoffset:81;animation:dwzbNElr_draw 328ms linear 2971ms forwards;}@keyframes dwzbNElr_draw{100%{stroke-dashoffset:0;}}@keyframes dwzbNElr_fade{0%{stroke-opacity:1;}94.66666666666667%{stroke-opacity:1;}100%{stroke-opacity:0;}}</style></svg>